<mxfile host="app.diagrams.net" agent="Mozilla/5.0 (Windows NT 10.0; Win64; x64) AppleWebKit/537.36 (KHTML, like Gecko) Chrome/137.0.0.0 Safari/537.36" version="27.2.0">
  <diagram name="第 1 页" id="xYrKDvczPBkH6GPFGPdA">
    <mxGraphModel dx="3417" dy="1358" grid="1" gridSize="10" guides="1" tooltips="1" connect="1" arrows="1" fold="1" page="1" pageScale="1" pageWidth="827" pageHeight="1169" math="0" shadow="0">
      <root>
        <mxCell id="0" />
        <mxCell id="1" parent="0" />
        <UserObject label="" plantUmlData="{&#xa;  &quot;data&quot;: &quot;@startuml\nclass 销售套路 {\n  - 低价引流：广告虚标降价幅度\n  - 捆绑加价：强制装潢/保险\n  + 应对策略：合同标注“无强制消费” [1,3](@ref)\n}\n\nclass 金融贷款 {\n  - 0利率陷阱：隐藏手续费5%\n  - 提前还款违约金\n  + 应对策略：对比银行利率+要求书面明细 [3,5](@ref)\n}\n\nclass 售后保养 {\n  - 过度保养：缩短周期\n  - 配件以次充好\n  + 应对策略：按手册保养+查验防伪码 [4,5](@ref)\n}\n\nclass 合同陷阱 {\n  - 文字游戏：“定金”不退\n  - 交车日期模糊\n  + 应对策略：手写补充条款+录音取证 [1,2](@ref)\n}\n\n消费者 --&gt; 销售套路 : 遭遇\n消费者 --&gt; 金融贷款 : 遭遇\n消费者 --&gt; 合同陷阱 : 签署\n消费者 --&gt; 售后保养 : 被动接受\n消费者 : + 核心能力：取证/比价/投诉 [5](@ref)\n@enduml&quot;,&#xa;  &quot;format&quot;: &quot;svg&quot;&#xa;}" id="f6K51OjCpyvuoy6xq_Eg-4">
          <mxCell style="shape=image;noLabel=1;verticalAlign=top;aspect=fixed;imageAspect=0;image=data:image/svg+xml,PHN2ZyB4bWxucz0iaHR0cDovL3d3dy53My5vcmcvMjAwMC9zdmciIHhtbG5zOnhsaW5rPSJodHRwOi8vd3d3LnczLm9yZy8xOTk5L3hsaW5rIiBjb250ZW50U3R5bGVUeXBlPSJ0ZXh0L2NzcyIgZGF0YS1kaWFncmFtLXR5cGU9IkNMQVNTIiBoZWlnaHQ9IjI0NHB4IiBwcmVzZXJ2ZUFzcGVjdFJhdGlvPSJub25lIiBzdHlsZT0id2lkdGg6MTQ0OHB4O2hlaWdodDoyNDRweDtiYWNrZ3JvdW5kOiNGRkZGRkY7IiB2ZXJzaW9uPSIxLjEiIHZpZXdCb3g9IjAgMCAxNDQ4IDI0NCIgd2lkdGg9IjE0NDhweCIgem9vbUFuZFBhbj0ibWFnbmlmeSI+PGRlZnMvPjxnPjwhLS1jbGFzcyA/Pz8/LS0+PGcgY2xhc3M9ImVudGl0eSIgZGF0YS1lbnRpdHk9IiYjMzgxNDQ7JiMyMTgwNjsmIzIyODcxOyYjMzYzMzU7IiBkYXRhLXNvdXJjZS1saW5lPSIxIiBkYXRhLXVpZD0iZW50MDAwMiIgaWQ9ImVudGl0eV8mIzM4MTQ0OyYjMjE4MDY7JiMyMjg3MTsmIzM2MzM1OyI+PHJlY3QgZmlsbD0iI0YxRjFGMSIgaGVpZ2h0PSI5Mi45NTMxIiByeD0iMi41IiByeT0iMi41IiBzdHlsZT0ic3Ryb2tlOiMxODE4MTg7c3Ryb2tlLXdpZHRoOjAuNTsiIHdpZHRoPSIzMjAiIHg9IjciIHk9IjE0NSIvPjxlbGxpcHNlIGN4PSIxMzQuNzUiIGN5PSIxNjEiIGZpbGw9IiNBREQxQjIiIHJ4PSIxMSIgcnk9IjExIiBzdHlsZT0ic3Ryb2tlOiMxODE4MTg7c3Ryb2tlLXdpZHRoOjE7Ii8+PHBhdGggZD0iTTEzMi4zNzUsMTY1LjI1IEwxMzIuMzc1LDE2NyBMMTM3LjMxMjUsMTY3IEwxMzcuMzEyNSwxNjUuMjUgTDEzMi4zNzUsMTY1LjI1IFogTTEzMy4wNjI1LDE2NS45Mzc1IFExMzMuMDYyNSwxNjUuOTM3NSAxMzMuMDYyNSwxNTYuNzUgTDEzMS4zMTI1LDE1Ni43NSBRMTMxLjMxMjUsMTU2Ljc1IDEzMS4zMTI1LDE2NS45Mzc1IEwxMzMuMDYyNSwxNjUuOTM3NSBaIE0xMzYuNjI1LDE2NS45Mzc1IEwxMzguMzc1LDE2NS45Mzc1IFExMzguMzc1LDE2NS45Mzc1IDEzOC4zNzUsMTYzLjEyNSBMMTM2LjYyNSwxNjMuMTI1IFExMzYuNjI1LDE2My4xMjUgMTM2LjYyNSwxNjUuOTM3NSBaIE0xMzYuNjI1LDE1Ni43NSBRMTM2LjYyNSwxNTYuNzUgMTM2LjYyNSwxNTkuNTYyNSBMMTM4LjM3NSwxNTkuNTYyNSBRMTM4LjM3NSwxNTkuNTYyNSAxMzguMzc1LDE1Ni43NSBMMTM2LjYyNSwxNTYuNzUgWiBNMTMyLjM3NSwxNTcuNDM3NSBMMTM3LjMxMjUsMTU3LjQzNzUgTDEzNy4zMTI1LDE1NS42ODc1IEwxMzIuMzc1LDE1NS42ODc1IEwxMzIuMzc1LDE1Ny40Mzc1IFogIiBmaWxsPSIjMDAwMDAwIi8+PHRleHQgZmlsbD0iIzAwMDAwMCIgZm9udC1mYW1pbHk9InNhbnMtc2VyaWYiIGZvbnQtc2l6ZT0iMTQiIGxlbmd0aEFkanVzdD0ic3BhY2luZyIgdGV4dExlbmd0aD0iNTYiIHg9IjE1NS4yNSIgeT0iMTY2Ljc0MjIiPiYjMzgxNDQ7JiMyMTgwNjsmIzIyODcxOyYjMzYzMzU7PC90ZXh0PjxsaW5lIHN0eWxlPSJzdHJva2U6IzE4MTgxODtzdHJva2Utd2lkdGg6MC41OyIgeDE9IjgiIHgyPSIzMjYiIHkxPSIxNzciIHkyPSIxNzciLz48cmVjdCBmaWxsPSJub25lIiBoZWlnaHQ9IjYiIHN0eWxlPSJzdHJva2U6I0M4MjkzMDtzdHJva2Utd2lkdGg6MTsiIHdpZHRoPSI2IiB4PSIxNSIgeT0iMTg2Ljk5MjIiLz48dGV4dCBmaWxsPSIjMDAwMDAwIiBmb250LWZhbWlseT0ic2Fucy1zZXJpZiIgZm9udC1zaXplPSIxNCIgbGVuZ3RoQWRqdXN0PSJzcGFjaW5nIiB0ZXh0TGVuZ3RoPSIxODIiIHg9IjI3IiB5PSIxOTQuMjM0NCI+JiMyMDMwMjsmIzIwMjE1OyYjMjQzNDE7JiMyNzk2OTsmIzY1MzA2OyYjMjQxOTE7JiMyMTU3ODsmIzM0Mzk0OyYjMjY2MzE7JiMzODQ3NzsmIzIwMjE1OyYjMjQxMzM7JiMyNDIzMDs8L3RleHQ+PHJlY3QgZmlsbD0ibm9uZSIgaGVpZ2h0PSI2IiBzdHlsZT0ic3Ryb2tlOiNDODI5MzA7c3Ryb2tlLXdpZHRoOjE7IiB3aWR0aD0iNiIgeD0iMTUiIHk9IjIwMS45NzY2Ii8+PHRleHQgZmlsbD0iIzAwMDAwMCIgZm9udC1mYW1pbHk9InNhbnMtc2VyaWYiIGZvbnQtc2l6ZT0iMTQiIGxlbmd0aEFkanVzdD0ic3BhY2luZyIgdGV4dExlbmd0aD0iMTYxIiB4PSIyNyIgeT0iMjA5LjIxODgiPiYjMjU0MTQ7JiMzMjQ2NTsmIzIxMTUyOyYjMjAyMTU7JiM2NTMwNjsmIzI0Mzc4OyYjMjEwNDY7JiMzNTAxMzsmIzI4NTE0Oy8mIzIwNDQ1OyYjMzg1MDU7PC90ZXh0PjxsaW5lIHN0eWxlPSJzdHJva2U6IzE4MTgxODtzdHJva2Utd2lkdGg6MC41OyIgeDE9IjgiIHgyPSIzMjYiIHkxPSIyMTQuOTY4OCIgeTI9IjIxNC45Njg4Ii8+PGVsbGlwc2UgY3g9IjE4IiBjeT0iMjI3Ljk2MDkiIGZpbGw9IiM4NEJFODQiIHJ4PSIzIiByeT0iMyIgc3R5bGU9InN0cm9rZTojMDM4MDQ4O3N0cm9rZS13aWR0aDoxOyIvPjx0ZXh0IGZpbGw9IiMwMDAwMDAiIGZvbnQtZmFtaWx5PSJzYW5zLXNlcmlmIiBmb250LXNpemU9IjE0IiBsZW5ndGhBZGp1c3Q9InNwYWNpbmciIHRleHRMZW5ndGg9IjI5NCIgeD0iMjciIHk9IjIzMi4yMDMxIj4mIzI0MjEyOyYjMjM1NDU7JiMzMTU3NDsmIzMwMDUzOyYjNjUzMDY7JiMyMTUxMjsmIzIxNTE2OyYjMjY2MzE7JiMyNzg4MDsmIzgyMjA7JiMyNjA4MDsmIzI0Mzc4OyYjMjEwNDY7JiMyODA0MDsmIzM2MTUzOyYjODIyMTsgWzEsM10oQHJlZik8L3RleHQ+PC9nPjwhLS1jbGFzcyA/Pz8/LS0+PGcgY2xhc3M9ImVudGl0eSIgZGF0YS1lbnRpdHk9IiYjMzczMjk7JiMzNDcwMTsmIzM2MTUxOyYjMjc0NTQ7IiBkYXRhLXNvdXJjZS1saW5lPSI3IiBkYXRhLXVpZD0iZW50MDAwMyIgaWQ9ImVudGl0eV8mIzM3MzI5OyYjMzQ3MDE7JiMzNjE1MTsmIzI3NDU0OyI+PHJlY3QgZmlsbD0iI0YxRjFGMSIgaGVpZ2h0PSI5Mi45NTMxIiByeD0iMi41IiByeT0iMi41IiBzdHlsZT0ic3Ryb2tlOiMxODE4MTg7c3Ryb2tlLXdpZHRoOjAuNTsiIHdpZHRoPSIzNTUiIHg9IjM2Mi41IiB5PSIxNDUiLz48ZWxsaXBzZSBjeD0iNTA3Ljc1IiBjeT0iMTYxIiBmaWxsPSIjQUREMUIyIiByeD0iMTEiIHJ5PSIxMSIgc3R5bGU9InN0cm9rZTojMTgxODE4O3N0cm9rZS13aWR0aDoxOyIvPjxwYXRoIGQ9Ik01MDUuMzc1LDE2NS4yNSBMNTA1LjM3NSwxNjcgTDUxMC4zMTI1LDE2NyBMNTEwLjMxMjUsMTY1LjI1IEw1MDUuMzc1LDE2NS4yNSBaIE01MDYuMDYyNSwxNjUuOTM3NSBRNTA2LjA2MjUsMTY1LjkzNzUgNTA2LjA2MjUsMTU2Ljc1IEw1MDQuMzEyNSwxNTYuNzUgUTUwNC4zMTI1LDE1Ni43NSA1MDQuMzEyNSwxNjUuOTM3NSBMNTA2LjA2MjUsMTY1LjkzNzUgWiBNNTA5LjYyNSwxNjUuOTM3NSBMNTExLjM3NSwxNjUuOTM3NSBRNTExLjM3NSwxNjUuOTM3NSA1MTEuMzc1LDE2My4xMjUgTDUwOS42MjUsMTYzLjEyNSBRNTA5LjYyNSwxNjMuMTI1IDUwOS42MjUsMTY1LjkzNzUgWiBNNTA5LjYyNSwxNTYuNzUgUTUwOS42MjUsMTU2Ljc1IDUwOS42MjUsMTU5LjU2MjUgTDUxMS4zNzUsMTU5LjU2MjUgUTUxMS4zNzUsMTU5LjU2MjUgNTExLjM3NSwxNTYuNzUgTDUwOS42MjUsMTU2Ljc1IFogTTUwNS4zNzUsMTU3LjQzNzUgTDUxMC4zMTI1LDE1Ny40Mzc1IEw1MTAuMzEyNSwxNTUuNjg3NSBMNTA1LjM3NSwxNTUuNjg3NSBMNTA1LjM3NSwxNTcuNDM3NSBaICIgZmlsbD0iIzAwMDAwMCIvPjx0ZXh0IGZpbGw9IiMwMDAwMDAiIGZvbnQtZmFtaWx5PSJzYW5zLXNlcmlmIiBmb250LXNpemU9IjE0IiBsZW5ndGhBZGp1c3Q9InNwYWNpbmciIHRleHRMZW5ndGg9IjU2IiB4PSI1MjguMjUiIHk9IjE2Ni43NDIyIj4mIzM3MzI5OyYjMzQ3MDE7JiMzNjE1MTsmIzI3NDU0OzwvdGV4dD48bGluZSBzdHlsZT0ic3Ryb2tlOiMxODE4MTg7c3Ryb2tlLXdpZHRoOjAuNTsiIHgxPSIzNjMuNSIgeDI9IjcxNi41IiB5MT0iMTc3IiB5Mj0iMTc3Ii8+PHJlY3QgZmlsbD0ibm9uZSIgaGVpZ2h0PSI2IiBzdHlsZT0ic3Ryb2tlOiNDODI5MzA7c3Ryb2tlLXdpZHRoOjE7IiB3aWR0aD0iNiIgeD0iMzcwLjUiIHk9IjE4Ni45OTIyIi8+PHRleHQgZmlsbD0iIzAwMDAwMCIgZm9udC1mYW1pbHk9InNhbnMtc2VyaWYiIGZvbnQtc2l6ZT0iMTQiIGxlbmd0aEFkanVzdD0ic3BhY2luZyIgdGV4dExlbmd0aD0iMTYxIiB4PSIzODIuNSIgeT0iMTk0LjIzNDQiPjAmIzIxMDMzOyYjMjk1NzU7JiMzODUxOTsmIzM4NDQ5OyYjNjUzMDY7JiMzODU0NDsmIzM0MjU1OyYjMjUxNjM7JiMzMjQ5MzsmIzM2MTUzOzUlPC90ZXh0PjxyZWN0IGZpbGw9Im5vbmUiIGhlaWdodD0iNiIgc3R5bGU9InN0cm9rZTojQzgyOTMwO3N0cm9rZS13aWR0aDoxOyIgd2lkdGg9IjYiIHg9IjM3MC41IiB5PSIyMDEuOTc2NiIvPjx0ZXh0IGZpbGw9IiMwMDAwMDAiIGZvbnQtZmFtaWx5PSJzYW5zLXNlcmlmIiBmb250LXNpemU9IjE0IiBsZW5ndGhBZGp1c3Q9InNwYWNpbmciIHRleHRMZW5ndGg9Ijk4IiB4PSIzODIuNSIgeT0iMjA5LjIxODgiPiYjMjU1NTI7JiMyMTA2OTsmIzM2ODI0OyYjMjc0NTQ7JiMzNjgyOTsmIzMyNDIyOyYjMzczMjk7PC90ZXh0PjxsaW5lIHN0eWxlPSJzdHJva2U6IzE4MTgxODtzdHJva2Utd2lkdGg6MC41OyIgeDE9IjM2My41IiB4Mj0iNzE2LjUiIHkxPSIyMTQuOTY4OCIgeTI9IjIxNC45Njg4Ii8+PGVsbGlwc2UgY3g9IjM3My41IiBjeT0iMjI3Ljk2MDkiIGZpbGw9IiM4NEJFODQiIHJ4PSIzIiByeT0iMyIgc3R5bGU9InN0cm9rZTojMDM4MDQ4O3N0cm9rZS13aWR0aDoxOyIvPjx0ZXh0IGZpbGw9IiMwMDAwMDAiIGZvbnQtZmFtaWx5PSJzYW5zLXNlcmlmIiBmb250LXNpemU9IjE0IiBsZW5ndGhBZGp1c3Q9InNwYWNpbmciIHRleHRMZW5ndGg9IjMyOSIgeD0iMzgyLjUiIHk9IjIzMi4yMDMxIj4mIzI0MjEyOyYjMjM1NDU7JiMzMTU3NDsmIzMwMDUzOyYjNjUzMDY7JiMyMzU0NTsmIzI3NjA0OyYjMzgxMzQ7JiMzNDg5MjsmIzIxMDMzOyYjMjk1NzU7KyYjMzUyMDE7JiMyNzcxNDsmIzIwMDcwOyYjMzg3NTQ7JiMyNjEyNjsmIzMyNDU0OyBbMyw1XShAcmVmKTwvdGV4dD48L2c+PCEtLWNsYXNzID8/Pz8tLT48ZyBjbGFzcz0iZW50aXR5IiBkYXRhLWVudGl0eT0iJiMyMTgwNjsmIzIxNTE4OyYjMjA0NDU7JiMyMDg1OTsiIGRhdGEtc291cmNlLWxpbmU9IjEzIiBkYXRhLXVpZD0iZW50MDAwNCIgaWQ9ImVudGl0eV8mIzIxODA2OyYjMjE1MTg7JiMyMDQ0NTsmIzIwODU5OyI+PHJlY3QgZmlsbD0iI0YxRjFGMSIgaGVpZ2h0PSI5Mi45NTMxIiByeD0iMi41IiByeT0iMi41IiBzdHlsZT0ic3Ryb2tlOiMxODE4MTg7c3Ryb2tlLXdpZHRoOjAuNTsiIHdpZHRoPSIzMjciIHg9Ijc1Mi41IiB5PSIxNDUiLz48ZWxsaXBzZSBjeD0iODgzLjc1IiBjeT0iMTYxIiBmaWxsPSIjQUREMUIyIiByeD0iMTEiIHJ5PSIxMSIgc3R5bGU9InN0cm9rZTojMTgxODE4O3N0cm9rZS13aWR0aDoxOyIvPjxwYXRoIGQ9Ik04ODEuMzc1LDE2NS4yNSBMODgxLjM3NSwxNjcgTDg4Ni4zMTI1LDE2NyBMODg2LjMxMjUsMTY1LjI1IEw4ODEuMzc1LDE2NS4yNSBaIE04ODIuMDYyNSwxNjUuOTM3NSBRODgyLjA2MjUsMTY1LjkzNzUgODgyLjA2MjUsMTU2Ljc1IEw4ODAuMzEyNSwxNTYuNzUgUTg4MC4zMTI1LDE1Ni43NSA4ODAuMzEyNSwxNjUuOTM3NSBMODgyLjA2MjUsMTY1LjkzNzUgWiBNODg1LjYyNSwxNjUuOTM3NSBMODg3LjM3NSwxNjUuOTM3NSBRODg3LjM3NSwxNjUuOTM3NSA4ODcuMzc1LDE2My4xMjUgTDg4NS42MjUsMTYzLjEyNSBRODg1LjYyNSwxNjMuMTI1IDg4NS42MjUsMTY1LjkzNzUgWiBNODg1LjYyNSwxNTYuNzUgUTg4NS42MjUsMTU2Ljc1IDg4NS42MjUsMTU5LjU2MjUgTDg4Ny4zNzUsMTU5LjU2MjUgUTg4Ny4zNzUsMTU5LjU2MjUgODg3LjM3NSwxNTYuNzUgTDg4NS42MjUsMTU2Ljc1IFogTTg4MS4zNzUsMTU3LjQzNzUgTDg4Ni4zMTI1LDE1Ny40Mzc1IEw4ODYuMzEyNSwxNTUuNjg3NSBMODgxLjM3NSwxNTUuNjg3NSBMODgxLjM3NSwxNTcuNDM3NSBaICIgZmlsbD0iIzAwMDAwMCIvPjx0ZXh0IGZpbGw9IiMwMDAwMDAiIGZvbnQtZmFtaWx5PSJzYW5zLXNlcmlmIiBmb250LXNpemU9IjE0IiBsZW5ndGhBZGp1c3Q9InNwYWNpbmciIHRleHRMZW5ndGg9IjU2IiB4PSI5MDQuMjUiIHk9IjE2Ni43NDIyIj4mIzIxODA2OyYjMjE1MTg7JiMyMDQ0NTsmIzIwODU5OzwvdGV4dD48bGluZSBzdHlsZT0ic3Ryb2tlOiMxODE4MTg7c3Ryb2tlLXdpZHRoOjAuNTsiIHgxPSI3NTMuNSIgeDI9IjEwNzguNSIgeTE9IjE3NyIgeTI9IjE3NyIvPjxyZWN0IGZpbGw9Im5vbmUiIGhlaWdodD0iNiIgc3R5bGU9InN0cm9rZTojQzgyOTMwO3N0cm9rZS13aWR0aDoxOyIgd2lkdGg9IjYiIHg9Ijc2MC41IiB5PSIxODYuOTkyMiIvPjx0ZXh0IGZpbGw9IiMwMDAwMDAiIGZvbnQtZmFtaWx5PSJzYW5zLXNlcmlmIiBmb250LXNpemU9IjE0IiBsZW5ndGhBZGp1c3Q9InNwYWNpbmciIHRleHRMZW5ndGg9IjEyNiIgeD0iNzcyLjUiIHk9IjE5NC4yMzQ0Ij4mIzM2ODA3OyYjMjQyMzA7JiMyMDQ0NTsmIzIwODU5OyYjNjUzMDY7JiMzMjU1MzsmIzMwNzAxOyYjMjE2MDg7JiMyNjM5OTs8L3RleHQ+PHJlY3QgZmlsbD0ibm9uZSIgaGVpZ2h0PSI2IiBzdHlsZT0ic3Ryb2tlOiNDODI5MzA7c3Ryb2tlLXdpZHRoOjE7IiB3aWR0aD0iNiIgeD0iNzYwLjUiIHk9IjIwMS45NzY2Ii8+PHRleHQgZmlsbD0iIzAwMDAwMCIgZm9udC1mYW1pbHk9InNhbnMtc2VyaWYiIGZvbnQtc2l6ZT0iMTQiIGxlbmd0aEFkanVzdD0ic3BhY2luZyIgdGV4dExlbmd0aD0iODQiIHg9Ijc3Mi41IiB5PSIyMDkuMjE4OCI+JiMzNzE5NzsmIzIwMjE0OyYjMjAxOTc7JiMyNzQyNTsmIzIwODA1OyYjMjI5MDk7PC90ZXh0PjxsaW5lIHN0eWxlPSJzdHJva2U6IzE4MTgxODtzdHJva2Utd2lkdGg6MC41OyIgeDE9Ijc1My41IiB4Mj0iMTA3OC41IiB5MT0iMjE0Ljk2ODgiIHkyPSIyMTQuOTY4OCIvPjxlbGxpcHNlIGN4PSI3NjMuNSIgY3k9IjIyNy45NjA5IiBmaWxsPSIjODRCRTg0IiByeD0iMyIgcnk9IjMiIHN0eWxlPSJzdHJva2U6IzAzODA0ODtzdHJva2Utd2lkdGg6MTsiLz48dGV4dCBmaWxsPSIjMDAwMDAwIiBmb250LWZhbWlseT0ic2Fucy1zZXJpZiIgZm9udC1zaXplPSIxNCIgbGVuZ3RoQWRqdXN0PSJzcGFjaW5nIiB0ZXh0TGVuZ3RoPSIzMDEiIHg9Ijc3Mi41IiB5PSIyMzIuMjAzMSI+JiMyNDIxMjsmIzIzNTQ1OyYjMzE1NzQ7JiMzMDA1MzsmIzY1MzA2OyYjMjUzNTM7JiMyNTE2MzsmIzIwODc2OyYjMjA0NDU7JiMyMDg1OTsrJiMyNjU5NzsmIzM5NTY0OyYjMzg0NTA7JiMyMDI2NjsmIzMwNzIxOyBbNCw1XShAcmVmKTwvdGV4dD48L2c+PCEtLWNsYXNzID8/Pz8tLT48ZyBjbGFzcz0iZW50aXR5IiBkYXRhLWVudGl0eT0iJiMyMTUxMjsmIzIxNTE2OyYjMzg1MTk7JiMzODQ0OTsiIGRhdGEtc291cmNlLWxpbmU9IjE5IiBkYXRhLXVpZD0iZW50MDAwNSIgaWQ9ImVudGl0eV8mIzIxNTEyOyYjMjE1MTY7JiMzODUxOTsmIzM4NDQ5OyI+PHJlY3QgZmlsbD0iI0YxRjFGMSIgaGVpZ2h0PSI5Mi45NTMxIiByeD0iMi41IiByeT0iMi41IiBzdHlsZT0ic3Ryb2tlOiMxODE4MTg7c3Ryb2tlLXdpZHRoOjAuNTsiIHdpZHRoPSIzMjciIHg9IjExMTQuNSIgeT0iMTQ1Ii8+PGVsbGlwc2UgY3g9IjEyNDUuNzUiIGN5PSIxNjEiIGZpbGw9IiNBREQxQjIiIHJ4PSIxMSIgcnk9IjExIiBzdHlsZT0ic3Ryb2tlOiMxODE4MTg7c3Ryb2tlLXdpZHRoOjE7Ii8+PHBhdGggZD0iTTEyNDMuMzc1LDE2NS4yNSBMMTI0My4zNzUsMTY3IEwxMjQ4LjMxMjUsMTY3IEwxMjQ4LjMxMjUsMTY1LjI1IEwxMjQzLjM3NSwxNjUuMjUgWiBNMTI0NC4wNjI1LDE2NS45Mzc1IFExMjQ0LjA2MjUsMTY1LjkzNzUgMTI0NC4wNjI1LDE1Ni43NSBMMTI0Mi4zMTI1LDE1Ni43NSBRMTI0Mi4zMTI1LDE1Ni43NSAxMjQyLjMxMjUsMTY1LjkzNzUgTDEyNDQuMDYyNSwxNjUuOTM3NSBaIE0xMjQ3LjYyNSwxNjUuOTM3NSBMMTI0OS4zNzUsMTY1LjkzNzUgUTEyNDkuMzc1LDE2NS45Mzc1IDEyNDkuMzc1LDE2My4xMjUgTDEyNDcuNjI1LDE2My4xMjUgUTEyNDcuNjI1LDE2My4xMjUgMTI0Ny42MjUsMTY1LjkzNzUgWiBNMTI0Ny42MjUsMTU2Ljc1IFExMjQ3LjYyNSwxNTYuNzUgMTI0Ny42MjUsMTU5LjU2MjUgTDEyNDkuMzc1LDE1OS41NjI1IFExMjQ5LjM3NSwxNTkuNTYyNSAxMjQ5LjM3NSwxNTYuNzUgTDEyNDcuNjI1LDE1Ni43NSBaIE0xMjQzLjM3NSwxNTcuNDM3NSBMMTI0OC4zMTI1LDE1Ny40Mzc1IEwxMjQ4LjMxMjUsMTU1LjY4NzUgTDEyNDMuMzc1LDE1NS42ODc1IEwxMjQzLjM3NSwxNTcuNDM3NSBaICIgZmlsbD0iIzAwMDAwMCIvPjx0ZXh0IGZpbGw9IiMwMDAwMDAiIGZvbnQtZmFtaWx5PSJzYW5zLXNlcmlmIiBmb250LXNpemU9IjE0IiBsZW5ndGhBZGp1c3Q9InNwYWNpbmciIHRleHRMZW5ndGg9IjU2IiB4PSIxMjY2LjI1IiB5PSIxNjYuNzQyMiI+JiMyMTUxMjsmIzIxNTE2OyYjMzg1MTk7JiMzODQ0OTs8L3RleHQ+PGxpbmUgc3R5bGU9InN0cm9rZTojMTgxODE4O3N0cm9rZS13aWR0aDowLjU7IiB4MT0iMTExNS41IiB4Mj0iMTQ0MC41IiB5MT0iMTc3IiB5Mj0iMTc3Ii8+PHJlY3QgZmlsbD0ibm9uZSIgaGVpZ2h0PSI2IiBzdHlsZT0ic3Ryb2tlOiNDODI5MzA7c3Ryb2tlLXdpZHRoOjE7IiB3aWR0aD0iNiIgeD0iMTEyMi41IiB5PSIxODYuOTkyMiIvPjx0ZXh0IGZpbGw9IiMwMDAwMDAiIGZvbnQtZmFtaWx5PSJzYW5zLXNlcmlmIiBmb250LXNpemU9IjE0IiBsZW5ndGhBZGp1c3Q9InNwYWNpbmciIHRleHRMZW5ndGg9IjE0MCIgeD0iMTEzNC41IiB5PSIxOTQuMjM0NCI+JiMyNTk5MTsmIzIzMzgzOyYjMjgyMTY7JiMyNTEwMzsmIzY1MzA2OyYjODIyMDsmIzIzNDUwOyYjMzczMjk7JiM4MjIxOyYjMTk5ODE7JiMzNjg2NDs8L3RleHQ+PHJlY3QgZmlsbD0ibm9uZSIgaGVpZ2h0PSI2IiBzdHlsZT0ic3Ryb2tlOiNDODI5MzA7c3Ryb2tlLXdpZHRoOjE7IiB3aWR0aD0iNiIgeD0iMTEyMi41IiB5PSIyMDEuOTc2NiIvPjx0ZXh0IGZpbGw9IiMwMDAwMDAiIGZvbnQtZmFtaWx5PSJzYW5zLXNlcmlmIiBmb250LXNpemU9IjE0IiBsZW5ndGhBZGp1c3Q9InNwYWNpbmciIHRleHRMZW5ndGg9Ijg0IiB4PSIxMTM0LjUiIHk9IjIwOS4yMTg4Ij4mIzIwMTMyOyYjMzY3MTA7JiMyNjA4NTsmIzI2Mzk5OyYjMjcxNjk7JiMzMTk0Njs8L3RleHQ+PGxpbmUgc3R5bGU9InN0cm9rZTojMTgxODE4O3N0cm9rZS13aWR0aDowLjU7IiB4MT0iMTExNS41IiB4Mj0iMTQ0MC41IiB5MT0iMjE0Ljk2ODgiIHkyPSIyMTQuOTY4OCIvPjxlbGxpcHNlIGN4PSIxMTI1LjUiIGN5PSIyMjcuOTYwOSIgZmlsbD0iIzg0QkU4NCIgcng9IjMiIHJ5PSIzIiBzdHlsZT0ic3Ryb2tlOiMwMzgwNDg7c3Ryb2tlLXdpZHRoOjE7Ii8+PHRleHQgZmlsbD0iIzAwMDAwMCIgZm9udC1mYW1pbHk9InNhbnMtc2VyaWYiIGZvbnQtc2l6ZT0iMTQiIGxlbmd0aEFkanVzdD0ic3BhY2luZyIgdGV4dExlbmd0aD0iMzAxIiB4PSIxMTM0LjUiIHk9IjIzMi4yMDMxIj4mIzI0MjEyOyYjMjM1NDU7JiMzMTU3NDsmIzMwMDUzOyYjNjUzMDY7JiMyNTE2MzsmIzIwODg5OyYjMzQ5MTc7JiMyMDgwNTsmIzI2NDY1OyYjMjc0NTQ7KyYjMjQ0MDU7JiMzODg5OTsmIzIxNDYyOyYjMzU3Nzc7IFsxLDJdKEByZWYpPC90ZXh0PjwvZz48IS0tY2xhc3MgPz8/LS0+PGcgY2xhc3M9ImVudGl0eSIgZGF0YS1lbnRpdHk9IiYjMjgwNDA7JiMzNjE1MzsmIzMyNzczOyIgZGF0YS1zb3VyY2UtbGluZT0iMjUiIGRhdGEtdWlkPSJlbnQwMDA2IiBpZD0iZW50aXR5XyYjMjgwNDA7JiMzNjE1MzsmIzMyNzczOyI+PHJlY3QgZmlsbD0iI0YxRjFGMSIgaGVpZ2h0PSI2Mi45ODQ0IiByeD0iMi41IiByeT0iMi41IiBzdHlsZT0ic3Ryb2tlOiMxODE4MTg7c3Ryb2tlLXdpZHRoOjAuNTsiIHdpZHRoPSIyNjQiIHg9IjU5NiIgeT0iNyIvPjxlbGxpcHNlIGN4PSI3MDIuNzUiIGN5PSIyMyIgZmlsbD0iI0FERDFCMiIgcng9IjExIiByeT0iMTEiIHN0eWxlPSJzdHJva2U6IzE4MTgxODtzdHJva2Utd2lkdGg6MTsiLz48cGF0aCBkPSJNNzAwLjM3NSwyNy4yNSBMNzAwLjM3NSwyOSBMNzA1LjMxMjUsMjkgTDcwNS4zMTI1LDI3LjI1IEw3MDAuMzc1LDI3LjI1IFogTTcwMS4wNjI1LDI3LjkzNzUgUTcwMS4wNjI1LDI3LjkzNzUgNzAxLjA2MjUsMTguNzUgTDY5OS4zMTI1LDE4Ljc1IFE2OTkuMzEyNSwxOC43NSA2OTkuMzEyNSwyNy45Mzc1IEw3MDEuMDYyNSwyNy45Mzc1IFogTTcwNC42MjUsMjcuOTM3NSBMNzA2LjM3NSwyNy45Mzc1IFE3MDYuMzc1LDI3LjkzNzUgNzA2LjM3NSwyNS4xMjUgTDcwNC42MjUsMjUuMTI1IFE3MDQuNjI1LDI1LjEyNSA3MDQuNjI1LDI3LjkzNzUgWiBNNzA0LjYyNSwxOC43NSBRNzA0LjYyNSwxOC43NSA3MDQuNjI1LDIxLjU2MjUgTDcwNi4zNzUsMjEuNTYyNSBRNzA2LjM3NSwyMS41NjI1IDcwNi4zNzUsMTguNzUgTDcwNC42MjUsMTguNzUgWiBNNzAwLjM3NSwxOS40Mzc1IEw3MDUuMzEyNSwxOS40Mzc1IEw3MDUuMzEyNSwxNy42ODc1IEw3MDAuMzc1LDE3LjY4NzUgTDcwMC4zNzUsMTkuNDM3NSBaICIgZmlsbD0iIzAwMDAwMCIvPjx0ZXh0IGZpbGw9IiMwMDAwMDAiIGZvbnQtZmFtaWx5PSJzYW5zLXNlcmlmIiBmb250LXNpemU9IjE0IiBsZW5ndGhBZGp1c3Q9InNwYWNpbmciIHRleHRMZW5ndGg9IjQyIiB4PSI3MjMuMjUiIHk9IjI4Ljc0MjIiPiYjMjgwNDA7JiMzNjE1MzsmIzMyNzczOzwvdGV4dD48bGluZSBzdHlsZT0ic3Ryb2tlOiMxODE4MTg7c3Ryb2tlLXdpZHRoOjAuNTsiIHgxPSI1OTciIHgyPSI4NTkiIHkxPSIzOSIgeTI9IjM5Ii8+PGxpbmUgc3R5bGU9InN0cm9rZTojMTgxODE4O3N0cm9rZS13aWR0aDowLjU7IiB4MT0iNTk3IiB4Mj0iODU5IiB5MT0iNDciIHkyPSI0NyIvPjxlbGxpcHNlIGN4PSI2MDciIGN5PSI1OS45OTIyIiBmaWxsPSIjODRCRTg0IiByeD0iMyIgcnk9IjMiIHN0eWxlPSJzdHJva2U6IzAzODA0ODtzdHJva2Utd2lkdGg6MTsiLz48dGV4dCBmaWxsPSIjMDAwMDAwIiBmb250LWZhbWlseT0ic2Fucy1zZXJpZiIgZm9udC1zaXplPSIxNCIgbGVuZ3RoQWRqdXN0PSJzcGFjaW5nIiB0ZXh0TGVuZ3RoPSIyMzgiIHg9IjYxNiIgeT0iNjQuMjM0NCI+JiMyNjY4MDsmIzI0NTE1OyYjMzMwMjE7JiMyMTE0NzsmIzY1MzA2OyYjMjE0NjI7JiMzNTc3NzsvJiMyNzYwNDsmIzIwMjE1Oy8mIzI1MjM3OyYjMzU3ODU7IFs1XShAcmVmKTwvdGV4dD48L2c+PCEtLWxpbmsgPz8/IHRvID8/Pz8tLT48ZyBjbGFzcz0ibGluayIgZGF0YS1lbnRpdHktMT0iJiMyODA0MDsmIzM2MTUzOyYjMzI3NzM7IiBkYXRhLWVudGl0eS0yPSImIzM4MTQ0OyYjMjE4MDY7JiMyMjg3MTsmIzM2MzM1OyIgZGF0YS1zb3VyY2UtbGluZT0iMjUiIGRhdGEtdWlkPSJsbms3IiBpZD0ibGlua18mIzI4MDQwOyYjMzYxNTM7JiMzMjc3MztfJiMzODE0NDsmIzIxODA2OyYjMjI4NzE7JiMzNjMzNTsiPjxwYXRoIGNvZGVMaW5lPSIyNSIgZD0iTTYxNC40Nyw3MC4wNiBDNTMxLjg3LDkyLjI5IDQyNC42ODM4LDEyMS4xNDA0IDMzMi45MjM4LDE0NS44NDA0IiBmaWxsPSJub25lIiBpZD0iJiMyODA0MDsmIzM2MTUzOyYjMzI3NzM7LXRvLSYjMzgxNDQ7JiMyMTgwNjsmIzIyODcxOyYjMzYzMzU7IiBzdHlsZT0ic3Ryb2tlOiMxODE4MTg7c3Ryb2tlLXdpZHRoOjE7Ii8+PHBvbHlnb24gZmlsbD0iIzE4MTgxOCIgcG9pbnRzPSIzMjcuMTMsMTQ3LjQsMzM2Ljg2MDQsMTQ4LjkyMzIsMzMxLjk1ODEsMTQ2LjEwMDQsMzM0Ljc4MDksMTQxLjE5ODEsMzI3LjEzLDE0Ny40IiBzdHlsZT0ic3Ryb2tlOiMxODE4MTg7c3Ryb2tlLXdpZHRoOjE7Ii8+PHRleHQgZmlsbD0iIzAwMDAwMCIgZm9udC1mYW1pbHk9InNhbnMtc2VyaWYiIGZvbnQtc2l6ZT0iMTMiIGxlbmd0aEFkanVzdD0ic3BhY2luZyIgdGV4dExlbmd0aD0iMjYiIHg9IjQ5OSIgeT0iMTEzLjI4OTEiPiYjMzY5NzM7JiMzNjkzNTs8L3RleHQ+PC9nPjwhLS1saW5rID8/PyB0byA/Pz8/LS0+PGcgY2xhc3M9ImxpbmsiIGRhdGEtZW50aXR5LTE9IiYjMjgwNDA7JiMzNjE1MzsmIzMyNzczOyIgZGF0YS1lbnRpdHktMj0iJiMzNzMyOTsmIzM0NzAxOyYjMzYxNTE7JiMyNzQ1NDsiIGRhdGEtc291cmNlLWxpbmU9IjI2IiBkYXRhLXVpZD0ibG5rOCIgaWQ9ImxpbmtfJiMyODA0MDsmIzM2MTUzOyYjMzI3NzM7XyYjMzczMjk7JiMzNDcwMTsmIzM2MTUxOyYjMjc0NTQ7Ij48cGF0aCBjb2RlTGluZT0iMjYiIGQ9Ik02ODkuOTYsNzAuMDYgQzY2My4yNCw5MS41MiA2MzEuNzE4NSwxMTYuODMzNSA2MDEuNTc4NSwxNDEuMDMzNSIgZmlsbD0ibm9uZSIgaWQ9IiYjMjgwNDA7JiMzNjE1MzsmIzMyNzczOy10by0mIzM3MzI5OyYjMzQ3MDE7JiMzNjE1MTsmIzI3NDU0OyIgc3R5bGU9InN0cm9rZTojMTgxODE4O3N0cm9rZS13aWR0aDoxOyIvPjxwb2x5Z29uIGZpbGw9IiMxODE4MTgiIHBvaW50cz0iNTk2LjksMTQ0Ljc5LDYwNi40MjIxLDE0Mi4yNzQzLDYwMC43OTg4LDE0MS42NTk2LDYwMS40MTM1LDEzNi4wMzYyLDU5Ni45LDE0NC43OSIgc3R5bGU9InN0cm9rZTojMTgxODE4O3N0cm9rZS13aWR0aDoxOyIvPjx0ZXh0IGZpbGw9IiMwMDAwMDAiIGZvbnQtZmFtaWx5PSJzYW5zLXNlcmlmIiBmb250LXNpemU9IjEzIiBsZW5ndGhBZGp1c3Q9InNwYWNpbmciIHRleHRMZW5ndGg9IjI2IiB4PSI2NTIiIHk9IjExMy4yODkxIj4mIzM2OTczOyYjMzY5MzU7PC90ZXh0PjwvZz48IS0tbGluayA/Pz8gdG8gPz8/Py0tPjxnIGNsYXNzPSJsaW5rIiBkYXRhLWVudGl0eS0xPSImIzI4MDQwOyYjMzYxNTM7JiMzMjc3MzsiIGRhdGEtZW50aXR5LTI9IiYjMjE1MTI7JiMyMTUxNjsmIzM4NTE5OyYjMzg0NDk7IiBkYXRhLXNvdXJjZS1saW5lPSIyNyIgZGF0YS11aWQ9ImxuazkiIGlkPSJsaW5rXyYjMjgwNDA7JiMzNjE1MzsmIzMyNzczO18mIzIxNTEyOyYjMjE1MTY7JiMzODUxOTsmIzM4NDQ5OyI+PHBhdGggY29kZUxpbmU9IjI3IiBkPSJNODM5LjMsNzAuMDYgQzkxOC4zMiw5MS43NSAxMDE5LjkxNDIsMTE5LjY0MTEgMTEwOC42NTQyLDE0NC4wMTExIiBmaWxsPSJub25lIiBpZD0iJiMyODA0MDsmIzM2MTUzOyYjMzI3NzM7LXRvLSYjMjE1MTI7JiMyMTUxNjsmIzM4NTE5OyYjMzg0NDk7IiBzdHlsZT0ic3Ryb2tlOiMxODE4MTg7c3Ryb2tlLXdpZHRoOjE7Ii8+PHBvbHlnb24gZmlsbD0iIzE4MTgxOCIgcG9pbnRzPSIxMTE0LjQ0LDE0NS42LDExMDYuODIwNiwxMzkuMzU5NCwxMTA5LjYxODUsMTQ0LjI3NTksMTEwNC43MDIsMTQ3LjA3MzgsMTExNC40NCwxNDUuNiIgc3R5bGU9InN0cm9rZTojMTgxODE4O3N0cm9rZS13aWR0aDoxOyIvPjx0ZXh0IGZpbGw9IiMwMDAwMDAiIGZvbnQtZmFtaWx5PSJzYW5zLXNlcmlmIiBmb250LXNpemU9IjEzIiBsZW5ndGhBZGp1c3Q9InNwYWNpbmciIHRleHRMZW5ndGg9IjI2IiB4PSIxMDA0IiB5PSIxMTMuMjg5MSI+JiMzMTYxNDsmIzMyNjI2OzwvdGV4dD48L2c+PCEtLWxpbmsgPz8/IHRvID8/Pz8tLT48ZyBjbGFzcz0ibGluayIgZGF0YS1lbnRpdHktMT0iJiMyODA0MDsmIzM2MTUzOyYjMzI3NzM7IiBkYXRhLWVudGl0eS0yPSImIzIxODA2OyYjMjE1MTg7JiMyMDQ0NTsmIzIwODU5OyIgZGF0YS1zb3VyY2UtbGluZT0iMjgiIGRhdGEtdWlkPSJsbmsxMCIgaWQ9ImxpbmtfJiMyODA0MDsmIzM2MTUzOyYjMzI3NzM7XyYjMjE4MDY7JiMyMTUxODsmIzIwNDQ1OyYjMjA4NTk7Ij48cGF0aCBjb2RlTGluZT0iMjgiIGQ9Ik03NjYuMDQsNzAuMDYgQzc5Mi43Niw5MS41MiA4MjQuMjgxNSwxMTYuODMzNSA4NTQuNDIxNSwxNDEuMDMzNSIgZmlsbD0ibm9uZSIgaWQ9IiYjMjgwNDA7JiMzNjE1MzsmIzMyNzczOy10by0mIzIxODA2OyYjMjE1MTg7JiMyMDQ0NTsmIzIwODU5OyIgc3R5bGU9InN0cm9rZTojMTgxODE4O3N0cm9rZS13aWR0aDoxOyIvPjxwb2x5Z29uIGZpbGw9IiMxODE4MTgiIHBvaW50cz0iODU5LjEsMTQ0Ljc5LDg1NC41ODY1LDEzNi4wMzYyLDg1NS4yMDEyLDE0MS42NTk2LDg0OS41Nzc5LDE0Mi4yNzQzLDg1OS4xLDE0NC43OSIgc3R5bGU9InN0cm9rZTojMTgxODE4O3N0cm9rZS13aWR0aDoxOyIvPjx0ZXh0IGZpbGw9IiMwMDAwMDAiIGZvbnQtZmFtaWx5PSJzYW5zLXNlcmlmIiBmb250LXNpemU9IjEzIiBsZW5ndGhBZGp1c3Q9InNwYWNpbmciIHRleHRMZW5ndGg9IjUyIiB4PSI4MjMiIHk9IjExMy4yODkxIj4mIzM0OTg3OyYjMjExNjA7JiMyNTUwOTsmIzIxNDYzOzwvdGV4dD48L2c+PCEtLVNSQz1bVFBCRFJqREc0OE50VU9neEdJZkFlbTJiY29tR3huNm5HMU1pTUQ0YkdoQWZkMS1KTnY3NElNWjgzeE1MYkJmTWNwUTl1eFgtYnllcHp6dUxoeTB1M2I5UW1sUlVDcVZWZDNENzd6dVU3cEZQS0ExbjJRT1h2V3h4YjYwaW5LQV80ZGZwTTNObkxsc3p3ZThSRzVxTmRJdUV5aDlKWmh2UzNQUk1NZWxiN0ZWZ2UwX2VFVEFrYmIyT1lQeVEtZ0RxNkZIYVBxQW85OERiMG5vTnNvdFVEMkRQaEcycjRsZFhUN29sZEE4blkwVG5MWDB0eGh0SU96ZGQtbVRsemJ2X1ZGVi1RVTlwOGQ0S2ktUmh1YVRQdENwbnVjeDMtV21BNHJ1WGhoYmlOdjZweERRNEtTTllMLXhQUDdOdTlBUWlyZzFPNWE2UjFhTkd1cWtCaDdRMkVJdXczVmJqOWVRYnMzYWZCMU1sbGVJazlOaVpSNVV1YnNGUFdfdDNWLTJZNTZpTHNYYXFSbUNkV1pwYjUzLUhFTHpEVUQtNi1YWEYtIC1qX2dMNlFpejBweU04OGNXUWNsdWk5SXFOUTF0QWJzMlk5VkxFVWJzSnhFYm9UeXU3QWlZenRxUW1KWmNGUHE2MGgzeFExWW1LTWdjSEJrU0RiYnRBV2tDRDVNSWZBTkZ4b0pGV002WVAxdWRaOGZfZkVmV1llOHVPY09NRGxJQjRjbU1fQV9YSWdCVTZlS05xbGpmWllOZU1ZaUxKZ3JTRUpvcDJmc2JCREZ6UGlMX3FWcE9DVEN1cFJUem9fVmdwUFJZTjNuRVdOdzZFaWM1MHJqZkdQc1gwNzJtWEVuOGFGLWxWZTRqUUJmRWFRd0JCSmczVTVLc0pQbHE3XzBHMDBdLS0+PC9nPjwvc3ZnPg==;" vertex="1" parent="1">
            <mxGeometry x="-760" y="70" width="2551.8" height="430" as="geometry" />
          </mxCell>
        </UserObject>
        <UserObject label="" plantUmlData="{&#xa;  &quot;data&quot;: &quot;@startuml\nstart\n:进入4S店;\nfork\n  :**销售环节**;\n  if (捆绑装潢？) then (是)\n    -&gt;[拒绝] 要求只谈裸车价;\n  else (否)\n  endif\n  :验车查生产日期（门框铭牌）;\nfork again\n  :**金融环节**;\n  :计算总成本（利息+手续费）;\n  if (成本＞银行利率？) then (是)\n    -&gt;[更换方案] 申请银行直贷;\n  else (否)\n  endif\nfork again\n  :**售后环节**;\n  :拒绝非手册项目;\n  :扫码查验配件防伪;\nend fork\n:签署合同前手写补充条款;\nstop\n@enduml&quot;,&#xa;  &quot;format&quot;: &quot;svg&quot;&#xa;}" id="f6K51OjCpyvuoy6xq_Eg-5">
          <mxCell style="shape=image;noLabel=1;verticalAlign=top;aspect=fixed;imageAspect=0;image=data:image/svg+xml,PHN2ZyB4bWxucz0iaHR0cDovL3d3dy53My5vcmcvMjAwMC9zdmciIHhtbG5zOnhsaW5rPSJodHRwOi8vd3d3LnczLm9yZy8xOTk5L3hsaW5rIiBjb250ZW50U3R5bGVUeXBlPSJ0ZXh0L2NzcyIgZGF0YS1kaWFncmFtLXR5cGU9IkFDVElWSVRZIiBoZWlnaHQ9IjQ3MnB4IiBwcmVzZXJ2ZUFzcGVjdFJhdGlvPSJub25lIiBzdHlsZT0id2lkdGg6NTc4cHg7aGVpZ2h0OjQ3MnB4O2JhY2tncm91bmQ6I0ZGRkZGRjsiIHZlcnNpb249IjEuMSIgdmlld0JveD0iMCAwIDU3OCA0NzIiIHdpZHRoPSI1NzhweCIgem9vbUFuZFBhbj0ibWFnbmlmeSI+PGRlZnMvPjxnPjxlbGxpcHNlIGN4PSIzMTQuNSIgY3k9IjIwIiBmaWxsPSIjMjIyMjIyIiByeD0iMTAiIHJ5PSIxMCIgc3R5bGU9InN0cm9rZTojMjIyMjIyO3N0cm9rZS13aWR0aDoxOyIvPjxyZWN0IGZpbGw9IiNGMUYxRjEiIGhlaWdodD0iMzIuODQzOCIgcng9IjEyLjUiIHJ5PSIxMi41IiBzdHlsZT0ic3Ryb2tlOiMxODE4MTg7c3Ryb2tlLXdpZHRoOjAuNTsiIHdpZHRoPSI2OCIgeD0iMjgwLjUiIHk9IjUwIi8+PHRleHQgZmlsbD0iIzAwMDAwMCIgZm9udC1mYW1pbHk9InNhbnMtc2VyaWYiIGZvbnQtc2l6ZT0iMTIiIGxlbmd0aEFkanVzdD0ic3BhY2luZyIgdGV4dExlbmd0aD0iNDgiIHg9IjI5MC41IiB5PSI3MS4zNDM4Ij4mIzM2ODI3OyYjMjA4Mzc7NFMmIzI0MjE1OzwvdGV4dD48cmVjdCBmaWxsPSIjNTU1NTU1IiBoZWlnaHQ9IjYiIHJ4PSIyLjUiIHJ5PSIyLjUiIHN0eWxlPSJzdHJva2U6IzU1NTU1NTtzdHJva2Utd2lkdGg6MTsiIHdpZHRoPSI1MzIiIHg9IjM1LjUiIHk9IjEwMi44NDM4Ii8+PHJlY3QgZmlsbD0iI0YxRjFGMSIgaGVpZ2h0PSIzMi44NDM4IiByeD0iMTIuNSIgcnk9IjEyLjUiIHN0eWxlPSJzdHJva2U6IzE4MTgxODtzdHJva2Utd2lkdGg6MC41OyIgd2lkdGg9IjY4IiB4PSIxMDMuNSIgeT0iMTI4Ljg0MzgiLz48dGV4dCBmaWxsPSIjMDAwMDAwIiBmb250LWZhbWlseT0ic2Fucy1zZXJpZiIgZm9udC1zaXplPSIxMiIgZm9udC13ZWlnaHQ9ImJvbGQiIGxlbmd0aEFkanVzdD0ic3BhY2luZyIgdGV4dExlbmd0aD0iNDgiIHg9IjExMy41IiB5PSIxNTAuMTg3NSI+JiMzODE0NDsmIzIxODA2OyYjMjk2MTU7JiMzMzQxMDs8L3RleHQ+PHBvbHlnb24gZmlsbD0iI0YxRjFGMSIgcG9pbnRzPSIxMTAsMTk2LjY4NzUsMTY1LDE5Ni42ODc1LDE3NywyMDguNjg3NSwxNjUsMjIwLjY4NzUsMTEwLDIyMC42ODc1LDk4LDIwOC42ODc1LDExMCwxOTYuNjg3NSIgc3R5bGU9InN0cm9rZTojMTgxODE4O3N0cm9rZS13aWR0aDowLjU7Ii8+PHRleHQgZmlsbD0iIzAwMDAwMCIgZm9udC1mYW1pbHk9InNhbnMtc2VyaWYiIGZvbnQtc2l6ZT0iMTEiIGxlbmd0aEFkanVzdD0ic3BhY2luZyIgdGV4dExlbmd0aD0iNTUiIHg9IjExMCIgeT0iMjEzLjE5OTIiPiYjMjU0MTQ7JiMzMjQ2NTsmIzM1MDEzOyYjMjg1MTQ7JiM2NTMxMTs8L3RleHQ+PHRleHQgZmlsbD0iIzAwMDAwMCIgZm9udC1mYW1pbHk9InNhbnMtc2VyaWYiIGZvbnQtc2l6ZT0iMTEiIGxlbmd0aEFkanVzdD0ic3BhY2luZyIgdGV4dExlbmd0aD0iMTEiIHg9Ijg3IiB5PSIyMDcuMzEyNSI+JiMyNjE1OTs8L3RleHQ+PHRleHQgZmlsbD0iIzAwMDAwMCIgZm9udC1mYW1pbHk9InNhbnMtc2VyaWYiIGZvbnQtc2l6ZT0iMTEiIGxlbmd0aEFkanVzdD0ic3BhY2luZyIgdGV4dExlbmd0aD0iMTEiIHg9IjE3NyIgeT0iMjA3LjMxMjUiPiYjMjE1NDI7PC90ZXh0Pjxwb2x5Z29uIGZpbGw9IiNGMUYxRjEiIHBvaW50cz0iMTM3LjUsMjQ4LjQ2MDksMTQ5LjUsMjYwLjQ2MDksMTM3LjUsMjcyLjQ2MDksMTI1LjUsMjYwLjQ2MDksMTM3LjUsMjQ4LjQ2MDkiIHN0eWxlPSJzdHJva2U6IzE4MTgxODtzdHJva2Utd2lkdGg6MC41OyIvPjx0ZXh0IGZpbGw9IiMwMDAwMDAiIGZvbnQtZmFtaWx5PSJzYW5zLXNlcmlmIiBmb250LXNpemU9IjExIiBsZW5ndGhBZGp1c3Q9InNwYWNpbmciIHRleHRMZW5ndGg9IjExNS41IiB4PSIxMCIgeT0iMjU5LjA4NTkiPlsmIzI1Mjk4OyYjMzI0Nzc7XSAmIzM1MjAxOyYjMjc3MTQ7JiMyMTQ4MjsmIzM1ODQ4OyYjMzUwNjQ7JiMzNjcxMDsmIzIwMjE1OzwvdGV4dD48cmVjdCBmaWxsPSIjRjFGMUYxIiBoZWlnaHQ9IjMyLjg0MzgiIHJ4PSIxMi41IiByeT0iMTIuNSIgc3R5bGU9InN0cm9rZTojMTgxODE4O3N0cm9rZS13aWR0aDowLjU7IiB3aWR0aD0iMTc2IiB4PSI0OS41IiB5PSIzMDcuNDYwOSIvPjx0ZXh0IGZpbGw9IiMwMDAwMDAiIGZvbnQtZmFtaWx5PSJzYW5zLXNlcmlmIiBmb250LXNpemU9IjEyIiBsZW5ndGhBZGp1c3Q9InNwYWNpbmciIHRleHRMZW5ndGg9IjE1NiIgeD0iNTkuNSIgeT0iMzI4LjgwNDciPiYjMzk1NjQ7JiMzNjcxMDsmIzI2NTk3OyYjMjk5ODM7JiMyMDEzNTsmIzI2MDg1OyYjMjYzOTk7JiM2NTI4ODsmIzM4Mzc2OyYjMjY2OTQ7JiMzODEyNTsmIzI5MjYwOyYjNjUyODk7PC90ZXh0PjxyZWN0IGZpbGw9IiNGMUYxRjEiIGhlaWdodD0iMzIuODQzOCIgcng9IjEyLjUiIHJ5PSIxMi41IiBzdHlsZT0ic3Ryb2tlOiMxODE4MTg7c3Ryb2tlLXdpZHRoOjAuNTsiIHdpZHRoPSI2OCIgeD0iMzEwLjUiIHk9IjEyOC44NDM4Ii8+PHRleHQgZmlsbD0iIzAwMDAwMCIgZm9udC1mYW1pbHk9InNhbnMtc2VyaWYiIGZvbnQtc2l6ZT0iMTIiIGZvbnQtd2VpZ2h0PSJib2xkIiBsZW5ndGhBZGp1c3Q9InNwYWNpbmciIHRleHRMZW5ndGg9IjQ4IiB4PSIzMjAuNSIgeT0iMTUwLjE4NzUiPiYjMzczMjk7JiMzNDcwMTsmIzI5NjE1OyYjMzM0MTA7PC90ZXh0PjxyZWN0IGZpbGw9IiNGMUYxRjEiIGhlaWdodD0iMzIuODQzOCIgcng9IjEyLjUiIHJ5PSIxMi41IiBzdHlsZT0ic3Ryb2tlOiMxODE4MTg7c3Ryb2tlLXdpZHRoOjAuNTsiIHdpZHRoPSIxNzAiIHg9IjI1OS41IiB5PSIxOTYuNjg3NSIvPjx0ZXh0IGZpbGw9IiMwMDAwMDAiIGZvbnQtZmFtaWx5PSJzYW5zLXNlcmlmIiBmb250LXNpemU9IjEyIiBsZW5ndGhBZGp1c3Q9InNwYWNpbmciIHRleHRMZW5ndGg9IjE1MCIgeD0iMjY5LjUiIHk9IjIxOC4wMzEzIj4mIzM1NzQ1OyYjMzE2Mzk7JiMyNDYzNTsmIzI1MTA0OyYjMjY0MTI7JiM2NTI4ODsmIzIxMDMzOyYjMjQ2ODc7KyYjMjUxNjM7JiMzMjQ5MzsmIzM2MTUzOyYjNjUyODk7PC90ZXh0Pjxwb2x5Z29uIGZpbGw9IiNGMUYxRjEiIHBvaW50cz0iMzAwLjUsMjY0LjUzMTMsMzg4LjUsMjY0LjUzMTMsNDAwLjUsMjc2LjUzMTMsMzg4LjUsMjg4LjUzMTMsMzAwLjUsMjg4LjUzMTMsMjg4LjUsMjc2LjUzMTMsMzAwLjUsMjY0LjUzMTMiIHN0eWxlPSJzdHJva2U6IzE4MTgxODtzdHJva2Utd2lkdGg6MC41OyIvPjx0ZXh0IGZpbGw9IiMwMDAwMDAiIGZvbnQtZmFtaWx5PSJzYW5zLXNlcmlmIiBmb250LXNpemU9IjExIiBsZW5ndGhBZGp1c3Q9InNwYWNpbmciIHRleHRMZW5ndGg9Ijg4IiB4PSIzMDAuNSIgeT0iMjgxLjA0MyI+JiMyNTEwNDsmIzI2NDEyOyYjNjUzMTA7JiMzODEzNDsmIzM0ODkyOyYjMjEwMzM7JiMyOTU3NTsmIzY1MzExOzwvdGV4dD48dGV4dCBmaWxsPSIjMDAwMDAwIiBmb250LWZhbWlseT0ic2Fucy1zZXJpZiIgZm9udC1zaXplPSIxMSIgbGVuZ3RoQWRqdXN0PSJzcGFjaW5nIiB0ZXh0TGVuZ3RoPSIxMSIgeD0iMjc3LjUiIHk9IjI3NS4xNTYzIj4mIzI2MTU5OzwvdGV4dD48dGV4dCBmaWxsPSIjMDAwMDAwIiBmb250LWZhbWlseT0ic2Fucy1zZXJpZiIgZm9udC1zaXplPSIxMSIgbGVuZ3RoQWRqdXN0PSJzcGFjaW5nIiB0ZXh0TGVuZ3RoPSIxMSIgeD0iNDAwLjUiIHk9IjI3NS4xNTYzIj4mIzIxNTQyOzwvdGV4dD48cG9seWdvbiBmaWxsPSIjRjFGMUYxIiBwb2ludHM9IjM0NC41LDMxNi4zMDQ3LDM1Ni41LDMyOC4zMDQ3LDM0NC41LDM0MC4zMDQ3LDMzMi41LDMyOC4zMDQ3LDM0NC41LDMxNi4zMDQ3IiBzdHlsZT0ic3Ryb2tlOiMxODE4MTg7c3Ryb2tlLXdpZHRoOjAuNTsiLz48dGV4dCBmaWxsPSIjMDAwMDAwIiBmb250LWZhbWlseT0ic2Fucy1zZXJpZiIgZm9udC1zaXplPSIxMSIgbGVuZ3RoQWRqdXN0PSJzcGFjaW5nIiB0ZXh0TGVuZ3RoPSIxMjYuNSIgeD0iMjA2IiB5PSIzMjYuOTI5NyI+WyYjMjYzNTY7JiMyNTQ0MjsmIzI2MDQxOyYjMjY2OTY7XSAmIzMwMDAzOyYjMzU4MzE7JiMzODEzNDsmIzM0ODkyOyYjMzA0NTI7JiMzNjE1MTs8L3RleHQ+PHJlY3QgZmlsbD0iI0YxRjFGMSIgaGVpZ2h0PSIzMi44NDM4IiByeD0iMTIuNSIgcnk9IjEyLjUiIHN0eWxlPSJzdHJva2U6IzE4MTgxODtzdHJva2Utd2lkdGg6MC41OyIgd2lkdGg9IjY4IiB4PSI0NjMuNSIgeT0iMTUwLjMwODYiLz48dGV4dCBmaWxsPSIjMDAwMDAwIiBmb250LWZhbWlseT0ic2Fucy1zZXJpZiIgZm9udC1zaXplPSIxMiIgZm9udC13ZWlnaHQ9ImJvbGQiIGxlbmd0aEFkanVzdD0ic3BhY2luZyIgdGV4dExlbmd0aD0iNDgiIHg9IjQ3My41IiB5PSIxNzEuNjUyMyI+JiMyMTgwNjsmIzIxNTE4OyYjMjk2MTU7JiMzMzQxMDs8L3RleHQ+PHJlY3QgZmlsbD0iI0YxRjFGMSIgaGVpZ2h0PSIzMi44NDM4IiByeD0iMTIuNSIgcnk9IjEyLjUiIHN0eWxlPSJzdHJva2U6IzE4MTgxODtzdHJva2Utd2lkdGg6MC41OyIgd2lkdGg9IjEwNCIgeD0iNDQ1LjUiIHk9IjIxOC4xNTIzIi8+PHRleHQgZmlsbD0iIzAwMDAwMCIgZm9udC1mYW1pbHk9InNhbnMtc2VyaWYiIGZvbnQtc2l6ZT0iMTIiIGxlbmd0aEFkanVzdD0ic3BhY2luZyIgdGV4dExlbmd0aD0iODQiIHg9IjQ1NS41IiB5PSIyMzkuNDk2MSI+JiMyNTI5ODsmIzMyNDc3OyYjMzg3NTA7JiMyNTE2MzsmIzIwODc2OyYjMzkwMzM7JiMzMDQ0Njs8L3RleHQ+PHJlY3QgZmlsbD0iI0YxRjFGMSIgaGVpZ2h0PSIzMi44NDM4IiByeD0iMTIuNSIgcnk9IjEyLjUiIHN0eWxlPSJzdHJva2U6IzE4MTgxODtzdHJva2Utd2lkdGg6MC41OyIgd2lkdGg9IjExNiIgeD0iNDM5LjUiIHk9IjI4NS45OTYxIi8+PHRleHQgZmlsbD0iIzAwMDAwMCIgZm9udC1mYW1pbHk9InNhbnMtc2VyaWYiIGZvbnQtc2l6ZT0iMTIiIGxlbmd0aEFkanVzdD0ic3BhY2luZyIgdGV4dExlbmd0aD0iOTYiIHg9IjQ0OS41IiB5PSIzMDcuMzM5OCI+JiMyNTE5NTsmIzMwNzIxOyYjMjY1OTc7JiMzOTU2NDsmIzM3MTk3OyYjMjAyMTQ7JiMzODQ1MDsmIzIwMjY2OzwvdGV4dD48cmVjdCBmaWxsPSIjNTU1NTU1IiBoZWlnaHQ9IjYiIHJ4PSIyLjUiIHJ5PSIyLjUiIHN0eWxlPSJzdHJva2U6IzU1NTU1NTtzdHJva2Utd2lkdGg6MTsiIHdpZHRoPSI1MzIiIHg9IjM1LjUiIHk9IjM2MC4zMDQ3Ii8+PHJlY3QgZmlsbD0iI0YxRjFGMSIgaGVpZ2h0PSIzMi44NDM4IiByeD0iMTIuNSIgcnk9IjEyLjUiIHN0eWxlPSJzdHJva2U6IzE4MTgxODtzdHJva2Utd2lkdGg6MC41OyIgd2lkdGg9IjE1MiIgeD0iMjM4LjUiIHk9IjM4Ni4zMDQ3Ii8+PHRleHQgZmlsbD0iIzAwMDAwMCIgZm9udC1mYW1pbHk9InNhbnMtc2VyaWYiIGZvbnQtc2l6ZT0iMTIiIGxlbmd0aEFkanVzdD0ic3BhY2luZyIgdGV4dExlbmd0aD0iMTMyIiB4PSIyNDguNSIgeT0iNDA3LjY0ODQiPiYjMzE2MTQ7JiMzMjYyNjsmIzIxNTEyOyYjMjE1MTY7JiMyMTA2OTsmIzI1MTYzOyYjMjA4ODk7JiMzNDkxNzsmIzIwODA1OyYjMjY0NjU7JiMyNzQ1NDs8L3RleHQ+PGVsbGlwc2UgY3g9IjMxNC41IiBjeT0iNDUwLjE0ODQiIGZpbGw9Im5vbmUiIHJ4PSIxMSIgcnk9IjExIiBzdHlsZT0ic3Ryb2tlOiMyMjIyMjI7c3Ryb2tlLXdpZHRoOjE7Ii8+PGVsbGlwc2UgY3g9IjMxNC41IiBjeT0iNDUwLjE0ODQiIGZpbGw9IiMyMjIyMjIiIHJ4PSI2IiByeT0iNiIgc3R5bGU9InN0cm9rZTojMjIyMjIyO3N0cm9rZS13aWR0aDoxOyIvPjxsaW5lIHN0eWxlPSJzdHJva2U6IzE4MTgxODtzdHJva2Utd2lkdGg6MTsiIHgxPSIzMTQuNSIgeDI9IjMxNC41IiB5MT0iMzAiIHkyPSI1MCIvPjxwb2x5Z29uIGZpbGw9IiMxODE4MTgiIHBvaW50cz0iMzEwLjUsNDAsMzE0LjUsNTAsMzE4LjUsNDAsMzE0LjUsNDQiIHN0eWxlPSJzdHJva2U6IzE4MTgxODtzdHJva2Utd2lkdGg6MTsiLz48bGluZSBzdHlsZT0ic3Ryb2tlOiMxODE4MTg7c3Ryb2tlLXdpZHRoOjE7IiB4MT0iOTgiIHgyPSI4OCIgeTE9IjIwOC42ODc1IiB5Mj0iMjA4LjY4NzUiLz48cG9seWdvbiBmaWxsPSIjMTgxODE4IiBwb2ludHM9Ijg0LDIyNC41NzQyLDg4LDIzNC41NzQyLDkyLDIyNC41NzQyLDg4LDIyOC41NzQyIiBzdHlsZT0ic3Ryb2tlOiMxODE4MTg7c3Ryb2tlLXdpZHRoOjE7Ii8+PGxpbmUgc3R5bGU9InN0cm9rZTojMTgxODE4O3N0cm9rZS13aWR0aDoxOyIgeDE9Ijg4IiB4Mj0iODgiIHkxPSIyMDguNjg3NSIgeTI9IjI2MC40NjA5Ii8+PGxpbmUgc3R5bGU9InN0cm9rZTojMTgxODE4O3N0cm9rZS13aWR0aDoxOyIgeDE9Ijg4IiB4Mj0iMTI1LjUiIHkxPSIyNjAuNDYwOSIgeTI9IjI2MC40NjA5Ii8+PHBvbHlnb24gZmlsbD0iIzE4MTgxOCIgcG9pbnRzPSIxMTUuNSwyNTYuNDYwOSwxMjUuNSwyNjAuNDYwOSwxMTUuNSwyNjQuNDYwOSwxMTkuNSwyNjAuNDYwOSIgc3R5bGU9InN0cm9rZTojMTgxODE4O3N0cm9rZS13aWR0aDoxOyIvPjxsaW5lIHN0eWxlPSJzdHJva2U6IzE4MTgxODtzdHJva2Utd2lkdGg6MTsiIHgxPSIxNzciIHgyPSIxODciIHkxPSIyMDguNjg3NSIgeTI9IjIwOC42ODc1Ii8+PHBvbHlnb24gZmlsbD0iIzE4MTgxOCIgcG9pbnRzPSIxODMsMjI0LjU3NDIsMTg3LDIzNC41NzQyLDE5MSwyMjQuNTc0MiwxODcsMjI4LjU3NDIiIHN0eWxlPSJzdHJva2U6IzE4MTgxODtzdHJva2Utd2lkdGg6MTsiLz48bGluZSBzdHlsZT0ic3Ryb2tlOiMxODE4MTg7c3Ryb2tlLXdpZHRoOjE7IiB4MT0iMTg3IiB4Mj0iMTg3IiB5MT0iMjA4LjY4NzUiIHkyPSIyNjAuNDYwOSIvPjxsaW5lIHN0eWxlPSJzdHJva2U6IzE4MTgxODtzdHJva2Utd2lkdGg6MTsiIHgxPSIxODciIHgyPSIxNDkuNSIgeTE9IjI2MC40NjA5IiB5Mj0iMjYwLjQ2MDkiLz48cG9seWdvbiBmaWxsPSIjMTgxODE4IiBwb2ludHM9IjE1OS41LDI1Ni40NjA5LDE0OS41LDI2MC40NjA5LDE1OS41LDI2NC40NjA5LDE1NS41LDI2MC40NjA5IiBzdHlsZT0ic3Ryb2tlOiMxODE4MTg7c3Ryb2tlLXdpZHRoOjE7Ii8+PGxpbmUgc3R5bGU9InN0cm9rZTojMTgxODE4O3N0cm9rZS13aWR0aDoxOyIgeDE9IjEzNy41IiB4Mj0iMTM3LjUiIHkxPSIxNjEuNjg3NSIgeTI9IjE5Ni42ODc1Ii8+PHBvbHlnb24gZmlsbD0iIzE4MTgxOCIgcG9pbnRzPSIxMzMuNSwxODYuNjg3NSwxMzcuNSwxOTYuNjg3NSwxNDEuNSwxODYuNjg3NSwxMzcuNSwxOTAuNjg3NSIgc3R5bGU9InN0cm9rZTojMTgxODE4O3N0cm9rZS13aWR0aDoxOyIvPjxsaW5lIHN0eWxlPSJzdHJva2U6IzE4MTgxODtzdHJva2Utd2lkdGg6MTsiIHgxPSIxMzcuNSIgeDI9IjEzNy41IiB5MT0iMjcyLjQ2MDkiIHkyPSIzMDcuNDYwOSIvPjxwb2x5Z29uIGZpbGw9IiMxODE4MTgiIHBvaW50cz0iMTMzLjUsMjk3LjQ2MDksMTM3LjUsMzA3LjQ2MDksMTQxLjUsMjk3LjQ2MDksMTM3LjUsMzAxLjQ2MDkiIHN0eWxlPSJzdHJva2U6IzE4MTgxODtzdHJva2Utd2lkdGg6MTsiLz48bGluZSBzdHlsZT0ic3Ryb2tlOiMxODE4MTg7c3Ryb2tlLXdpZHRoOjE7IiB4MT0iMzQ0LjUiIHgyPSIzNDQuNSIgeTE9IjE2MS42ODc1IiB5Mj0iMTk2LjY4NzUiLz48cG9seWdvbiBmaWxsPSIjMTgxODE4IiBwb2ludHM9IjM0MC41LDE4Ni42ODc1LDM0NC41LDE5Ni42ODc1LDM0OC41LDE4Ni42ODc1LDM0NC41LDE5MC42ODc1IiBzdHlsZT0ic3Ryb2tlOiMxODE4MTg7c3Ryb2tlLXdpZHRoOjE7Ii8+PGxpbmUgc3R5bGU9InN0cm9rZTojMTgxODE4O3N0cm9rZS13aWR0aDoxOyIgeDE9IjI4OC41IiB4Mj0iMjc4LjUiIHkxPSIyNzYuNTMxMyIgeTI9IjI3Ni41MzEzIi8+PHBvbHlnb24gZmlsbD0iIzE4MTgxOCIgcG9pbnRzPSIyNzQuNSwyOTIuNDE4LDI3OC41LDMwMi40MTgsMjgyLjUsMjkyLjQxOCwyNzguNSwyOTYuNDE4IiBzdHlsZT0ic3Ryb2tlOiMxODE4MTg7c3Ryb2tlLXdpZHRoOjE7Ii8+PGxpbmUgc3R5bGU9InN0cm9rZTojMTgxODE4O3N0cm9rZS13aWR0aDoxOyIgeDE9IjI3OC41IiB4Mj0iMjc4LjUiIHkxPSIyNzYuNTMxMyIgeTI9IjMyOC4zMDQ3Ii8+PGxpbmUgc3R5bGU9InN0cm9rZTojMTgxODE4O3N0cm9rZS13aWR0aDoxOyIgeDE9IjI3OC41IiB4Mj0iMzMyLjUiIHkxPSIzMjguMzA0NyIgeTI9IjMyOC4zMDQ3Ii8+PHBvbHlnb24gZmlsbD0iIzE4MTgxOCIgcG9pbnRzPSIzMjIuNSwzMjQuMzA0NywzMzIuNSwzMjguMzA0NywzMjIuNSwzMzIuMzA0NywzMjYuNSwzMjguMzA0NyIgc3R5bGU9InN0cm9rZTojMTgxODE4O3N0cm9rZS13aWR0aDoxOyIvPjxsaW5lIHN0eWxlPSJzdHJva2U6IzE4MTgxODtzdHJva2Utd2lkdGg6MTsiIHgxPSI0MDAuNSIgeDI9IjQxMC41IiB5MT0iMjc2LjUzMTMiIHkyPSIyNzYuNTMxMyIvPjxwb2x5Z29uIGZpbGw9IiMxODE4MTgiIHBvaW50cz0iNDA2LjUsMjkyLjQxOCw0MTAuNSwzMDIuNDE4LDQxNC41LDI5Mi40MTgsNDEwLjUsMjk2LjQxOCIgc3R5bGU9InN0cm9rZTojMTgxODE4O3N0cm9rZS13aWR0aDoxOyIvPjxsaW5lIHN0eWxlPSJzdHJva2U6IzE4MTgxODtzdHJva2Utd2lkdGg6MTsiIHgxPSI0MTAuNSIgeDI9IjQxMC41IiB5MT0iMjc2LjUzMTMiIHkyPSIzMjguMzA0NyIvPjxsaW5lIHN0eWxlPSJzdHJva2U6IzE4MTgxODtzdHJva2Utd2lkdGg6MTsiIHgxPSI0MTAuNSIgeDI9IjM1Ni41IiB5MT0iMzI4LjMwNDciIHkyPSIzMjguMzA0NyIvPjxwb2x5Z29uIGZpbGw9IiMxODE4MTgiIHBvaW50cz0iMzY2LjUsMzI0LjMwNDcsMzU2LjUsMzI4LjMwNDcsMzY2LjUsMzMyLjMwNDcsMzYyLjUsMzI4LjMwNDciIHN0eWxlPSJzdHJva2U6IzE4MTgxODtzdHJva2Utd2lkdGg6MTsiLz48bGluZSBzdHlsZT0ic3Ryb2tlOiMxODE4MTg7c3Ryb2tlLXdpZHRoOjE7IiB4MT0iMzQ0LjUiIHgyPSIzNDQuNSIgeTE9IjIyOS41MzEzIiB5Mj0iMjY0LjUzMTMiLz48cG9seWdvbiBmaWxsPSIjMTgxODE4IiBwb2ludHM9IjM0MC41LDI1NC41MzEzLDM0NC41LDI2NC41MzEzLDM0OC41LDI1NC41MzEzLDM0NC41LDI1OC41MzEzIiBzdHlsZT0ic3Ryb2tlOiMxODE4MTg7c3Ryb2tlLXdpZHRoOjE7Ii8+PGxpbmUgc3R5bGU9InN0cm9rZTojMTgxODE4O3N0cm9rZS13aWR0aDoxOyIgeDE9IjQ5Ny41IiB4Mj0iNDk3LjUiIHkxPSIxODMuMTUyMyIgeTI9IjIxOC4xNTIzIi8+PHBvbHlnb24gZmlsbD0iIzE4MTgxOCIgcG9pbnRzPSI0OTMuNSwyMDguMTUyMyw0OTcuNSwyMTguMTUyMyw1MDEuNSwyMDguMTUyMyw0OTcuNSwyMTIuMTUyMyIgc3R5bGU9InN0cm9rZTojMTgxODE4O3N0cm9rZS13aWR0aDoxOyIvPjxsaW5lIHN0eWxlPSJzdHJva2U6IzE4MTgxODtzdHJva2Utd2lkdGg6MTsiIHgxPSI0OTcuNSIgeDI9IjQ5Ny41IiB5MT0iMjUwLjk5NjEiIHkyPSIyODUuOTk2MSIvPjxwb2x5Z29uIGZpbGw9IiMxODE4MTgiIHBvaW50cz0iNDkzLjUsMjc1Ljk5NjEsNDk3LjUsMjg1Ljk5NjEsNTAxLjUsMjc1Ljk5NjEsNDk3LjUsMjc5Ljk5NjEiIHN0eWxlPSJzdHJva2U6IzE4MTgxODtzdHJva2Utd2lkdGg6MTsiLz48bGluZSBzdHlsZT0ic3Ryb2tlOiMxODE4MTg7c3Ryb2tlLXdpZHRoOjE7IiB4MT0iMTM3LjUiIHgyPSIxMzcuNSIgeTE9IjEwOC44NDM4IiB5Mj0iMTI4Ljg0MzgiLz48cG9seWdvbiBmaWxsPSIjMTgxODE4IiBwb2ludHM9IjEzMy41LDExOC44NDM4LDEzNy41LDEyOC44NDM4LDE0MS41LDExOC44NDM4LDEzNy41LDEyMi44NDM4IiBzdHlsZT0ic3Ryb2tlOiMxODE4MTg7c3Ryb2tlLXdpZHRoOjE7Ii8+PGxpbmUgc3R5bGU9InN0cm9rZTojMTgxODE4O3N0cm9rZS13aWR0aDoxOyIgeDE9IjM0NC41IiB4Mj0iMzQ0LjUiIHkxPSIxMDguODQzOCIgeTI9IjEyOC44NDM4Ii8+PHBvbHlnb24gZmlsbD0iIzE4MTgxOCIgcG9pbnRzPSIzNDAuNSwxMTguODQzOCwzNDQuNSwxMjguODQzOCwzNDguNSwxMTguODQzOCwzNDQuNSwxMjIuODQzOCIgc3R5bGU9InN0cm9rZTojMTgxODE4O3N0cm9rZS13aWR0aDoxOyIvPjxsaW5lIHN0eWxlPSJzdHJva2U6IzE4MTgxODtzdHJva2Utd2lkdGg6MTsiIHgxPSI0OTcuNSIgeDI9IjQ5Ny41IiB5MT0iMTA4Ljg0MzgiIHkyPSIxNTAuMzA4NiIvPjxwb2x5Z29uIGZpbGw9IiMxODE4MTgiIHBvaW50cz0iNDkzLjUsMTQwLjMwODYsNDk3LjUsMTUwLjMwODYsNTAxLjUsMTQwLjMwODYsNDk3LjUsMTQ0LjMwODYiIHN0eWxlPSJzdHJva2U6IzE4MTgxODtzdHJva2Utd2lkdGg6MTsiLz48bGluZSBzdHlsZT0ic3Ryb2tlOiMxODE4MTg7c3Ryb2tlLXdpZHRoOjE7IiB4MT0iMTM3LjUiIHgyPSIxMzcuNSIgeTE9IjM0MC4zMDQ3IiB5Mj0iMzYwLjMwNDciLz48cG9seWdvbiBmaWxsPSIjMTgxODE4IiBwb2ludHM9IjEzMy41LDM1MC4zMDQ3LDEzNy41LDM2MC4zMDQ3LDE0MS41LDM1MC4zMDQ3LDEzNy41LDM1NC4zMDQ3IiBzdHlsZT0ic3Ryb2tlOiMxODE4MTg7c3Ryb2tlLXdpZHRoOjE7Ii8+PGxpbmUgc3R5bGU9InN0cm9rZTojMTgxODE4O3N0cm9rZS13aWR0aDoxOyIgeDE9IjM0NC41IiB4Mj0iMzQ0LjUiIHkxPSIzNDAuMzA0NyIgeTI9IjM2MC4zMDQ3Ii8+PHBvbHlnb24gZmlsbD0iIzE4MTgxOCIgcG9pbnRzPSIzNDAuNSwzNTAuMzA0NywzNDQuNSwzNjAuMzA0NywzNDguNSwzNTAuMzA0NywzNDQuNSwzNTQuMzA0NyIgc3R5bGU9InN0cm9rZTojMTgxODE4O3N0cm9rZS13aWR0aDoxOyIvPjxsaW5lIHN0eWxlPSJzdHJva2U6IzE4MTgxODtzdHJva2Utd2lkdGg6MTsiIHgxPSI0OTcuNSIgeDI9IjQ5Ny41IiB5MT0iMzE4LjgzOTgiIHkyPSIzNjAuMzA0NyIvPjxwb2x5Z29uIGZpbGw9IiMxODE4MTgiIHBvaW50cz0iNDkzLjUsMzUwLjMwNDcsNDk3LjUsMzYwLjMwNDcsNTAxLjUsMzUwLjMwNDcsNDk3LjUsMzU0LjMwNDciIHN0eWxlPSJzdHJva2U6IzE4MTgxODtzdHJva2Utd2lkdGg6MTsiLz48bGluZSBzdHlsZT0ic3Ryb2tlOiMxODE4MTg7c3Ryb2tlLXdpZHRoOjE7IiB4MT0iMzE0LjUiIHgyPSIzMTQuNSIgeTE9IjgyLjg0MzgiIHkyPSIxMDIuODQzOCIvPjxwb2x5Z29uIGZpbGw9IiMxODE4MTgiIHBvaW50cz0iMzEwLjUsOTIuODQzOCwzMTQuNSwxMDIuODQzOCwzMTguNSw5Mi44NDM4LDMxNC41LDk2Ljg0MzgiIHN0eWxlPSJzdHJva2U6IzE4MTgxODtzdHJva2Utd2lkdGg6MTsiLz48bGluZSBzdHlsZT0ic3Ryb2tlOiMxODE4MTg7c3Ryb2tlLXdpZHRoOjE7IiB4MT0iMzE0LjUiIHgyPSIzMTQuNSIgeTE9IjM2Ni4zMDQ3IiB5Mj0iMzg2LjMwNDciLz48cG9seWdvbiBmaWxsPSIjMTgxODE4IiBwb2ludHM9IjMxMC41LDM3Ni4zMDQ3LDMxNC41LDM4Ni4zMDQ3LDMxOC41LDM3Ni4zMDQ3LDMxNC41LDM4MC4zMDQ3IiBzdHlsZT0ic3Ryb2tlOiMxODE4MTg7c3Ryb2tlLXdpZHRoOjE7Ii8+PGxpbmUgc3R5bGU9InN0cm9rZTojMTgxODE4O3N0cm9rZS13aWR0aDoxOyIgeDE9IjMxNC41IiB4Mj0iMzE0LjUiIHkxPSI0MTkuMTQ4NCIgeTI9IjQzOS4xNDg0Ii8+PHBvbHlnb24gZmlsbD0iIzE4MTgxOCIgcG9pbnRzPSIzMTAuNSw0MjkuMTQ4NCwzMTQuNSw0MzkuMTQ4NCwzMTguNSw0MjkuMTQ4NCwzMTQuNSw0MzMuMTQ4NCIgc3R5bGU9InN0cm9rZTojMTgxODE4O3N0cm9rZS13aWR0aDoxOyIvPjwhLS1TUkM9W1RQN0RKaTkwNThOdFZPZlBHZXF4THBKbjlMbVE1WUkyNFdxT3UwNjRmRDFBWXFNOG5QR1YybTRMLUw1aUcyWldvdEprcEFudTFPVVZYUGdtbE5Ga2NVLVNjcW81NFlhWEdCeWpCQlVGSmwzQ2I4SDhGNzRmODFHR0hMUS1tVUsxQUdwZlJLT0s5SndDSGYwRnoybm5ZeEdibXdBdmNaVnlBN0tIWmw1blBVWmQyZUdFWnF5WFZxX1NNWDNISlhlLUNsWWtJenlMc2xnWVl1eGRKak8tdVFqYTZGY21xTGNsWDZEZHFTWndIelJMazBHUVJMOWtVQkRkQ0RqR1JRcGMyWkRWbUN3b0tmLWVzY2drUlg1SHczbUtaVXIwU3FMUXJ0LTMxa1owOVdDSlJibkczQVpzazBqTU5ZNHpGMDBySnptLVRRT1JmcnNhZFFSRUljRGdRcm45MmhienNJbTd6Mk95SkM1TVdlWUtGLWJtaWJxWmJhRVRWVjctOF9EWWlMN3VXeG5qWlROZzcxNWRETVBGWUpOT2xnWGx2MmREWS00RENMZHR0MzZoWkJudkxuQXVFVGVTQjQzd0l4OE9PS0YxWGVQTFZVRm5JRXFzYmNNZXNUMVJJYThvNVJfLTBHMDBdLS0+PC9nPjwvc3ZnPg==;" vertex="1" parent="1">
            <mxGeometry x="-740" y="560" width="1060" height="865.6" as="geometry" />
          </mxCell>
        </UserObject>
        <UserObject label="" plantUmlData="{&#xa;  &quot;data&quot;: &quot;@startuml\nnode \&quot;消费者\&quot; as user\nnode \&quot;4S店系统\&quot; as dealer {\n  artifact \&quot;销售套路模块\&quot; as sales\n  artifact \&quot;金融陷阱模块\&quot; as finance\n  artifact \&quot;售后暴利模块\&quot; as service\n}\n\nnode \&quot;外部监管\&quot; as gov {\n  [12315平台] as platform\n  [消协] as association\n  [车企400热线] as hotline\n}\n\nuser --&gt; sales : 遭遇捆绑销售\nuser --&gt; finance : 支付高额手续费\nuser --&gt; service : 被推销过度保养\nuser --&gt; platform : 上传录音/合同举证 [1](@ref)\nplatform --&gt; dealer : 强制整改\nhotline --&gt; dealer : 扣减厂商返点 [3](@ref)\n@enduml&quot;,&#xa;  &quot;format&quot;: &quot;svg&quot;&#xa;}" id="f6K51OjCpyvuoy6xq_Eg-6">
          <mxCell style="shape=image;noLabel=1;verticalAlign=top;aspect=fixed;imageAspect=0;image=data:image/svg+xml,PHN2ZyB4bWxucz0iaHR0cDovL3d3dy53My5vcmcvMjAwMC9zdmciIHhtbG5zOnhsaW5rPSJodHRwOi8vd3d3LnczLm9yZy8xOTk5L3hsaW5rIiBjb250ZW50U3R5bGVUeXBlPSJ0ZXh0L2NzcyIgZGF0YS1kaWFncmFtLXR5cGU9IkRFU0NSSVBUSU9OIiBoZWlnaHQ9IjM5MXB4IiBwcmVzZXJ2ZUFzcGVjdFJhdGlvPSJub25lIiBzdHlsZT0id2lkdGg6OTE2cHg7aGVpZ2h0OjM5MXB4O2JhY2tncm91bmQ6I0ZGRkZGRjsiIHZlcnNpb249IjEuMSIgdmlld0JveD0iMCAwIDkxNiAzOTEiIHdpZHRoPSI5MTZweCIgem9vbUFuZFBhbj0ibWFnbmlmeSI+PGRlZnMvPjxnPjwhLS1jbHVzdGVyIGRlYWxlci0tPjxnIGNsYXNzPSJjbHVzdGVyIiBkYXRhLWVudGl0eT0iZGVhbGVyIiBkYXRhLXNvdXJjZS1saW5lPSIyIiBkYXRhLXVpZD0iZW50MDAwMyIgaWQ9ImNsdXN0ZXJfZGVhbGVyIj48cG9seWdvbiBmaWxsPSJub25lIiBwb2ludHM9IjE2LDI3NiwyNiwyNjYsNDk1LDI2Niw0OTUsMzY0LDQ4NSwzNzQsMTYsMzc0LDE2LDI3NiIgc3R5bGU9InN0cm9rZTojMTgxODE4O3N0cm9rZS13aWR0aDoxOyIvPjxsaW5lIHN0eWxlPSJzdHJva2U6IzE4MTgxODtzdHJva2Utd2lkdGg6MTsiIHgxPSI0ODUiIHgyPSI0OTUiIHkxPSIyNzYiIHkyPSIyNjYiLz48bGluZSBzdHlsZT0ic3Ryb2tlOiMxODE4MTg7c3Ryb2tlLXdpZHRoOjE7IiB4MT0iMTYiIHgyPSI0ODUiIHkxPSIyNzYiIHkyPSIyNzYiLz48bGluZSBzdHlsZT0ic3Ryb2tlOiMxODE4MTg7c3Ryb2tlLXdpZHRoOjE7IiB4MT0iNDg1IiB4Mj0iNDg1IiB5MT0iMjc2IiB5Mj0iMzc0Ii8+PHRleHQgZmlsbD0iIzAwMDAwMCIgZm9udC1mYW1pbHk9InNhbnMtc2VyaWYiIGZvbnQtc2l6ZT0iMTQiIGZvbnQtd2VpZ2h0PSJib2xkIiBsZW5ndGhBZGp1c3Q9InNwYWNpbmciIHRleHRMZW5ndGg9IjU2IiB4PSIyMjMuNSIgeT0iMjkyLjIzNDQiPjRTJiMyNDIxNTsmIzMxOTk1OyYjMzI0Nzk7PC90ZXh0PjwvZz48IS0tY2x1c3RlciBnb3YtLT48ZyBjbGFzcz0iY2x1c3RlciIgZGF0YS1lbnRpdHk9ImdvdiIgZGF0YS1zb3VyY2UtbGluZT0iOCIgZGF0YS11aWQ9ImVudDAwMDciIGlkPSJjbHVzdGVyX2dvdiI+PHBvbHlnb24gZmlsbD0ibm9uZSIgcG9pbnRzPSI1MDcsMTIyLDUxNywxMTIsODk5LDExMiw4OTksMjAxLDg4OSwyMTEsNTA3LDIxMSw1MDcsMTIyIiBzdHlsZT0ic3Ryb2tlOiMxODE4MTg7c3Ryb2tlLXdpZHRoOjE7Ii8+PGxpbmUgc3R5bGU9InN0cm9rZTojMTgxODE4O3N0cm9rZS13aWR0aDoxOyIgeDE9Ijg4OSIgeDI9Ijg5OSIgeTE9IjEyMiIgeTI9IjExMiIvPjxsaW5lIHN0eWxlPSJzdHJva2U6IzE4MTgxODtzdHJva2Utd2lkdGg6MTsiIHgxPSI1MDciIHgyPSI4ODkiIHkxPSIxMjIiIHkyPSIxMjIiLz48bGluZSBzdHlsZT0ic3Ryb2tlOiMxODE4MTg7c3Ryb2tlLXdpZHRoOjE7IiB4MT0iODg5IiB4Mj0iODg5IiB5MT0iMTIyIiB5Mj0iMjExIi8+PHRleHQgZmlsbD0iIzAwMDAwMCIgZm9udC1mYW1pbHk9InNhbnMtc2VyaWYiIGZvbnQtc2l6ZT0iMTQiIGZvbnQtd2VpZ2h0PSJib2xkIiBsZW5ndGhBZGp1c3Q9InNwYWNpbmciIHRleHRMZW5ndGg9IjU2IiB4PSI2NzEiIHk9IjEzOC4yMzQ0Ij4mIzIyODA2OyYjMzcwOTY7JiMzMDQxNzsmIzMxNjQ5OzwvdGV4dD48L2c+PCEtLWVudGl0eSBzYWxlcy0tPjxnIGNsYXNzPSJlbnRpdHkiIGRhdGEtZW50aXR5PSJzYWxlcyIgZGF0YS1zb3VyY2UtbGluZT0iMyIgZGF0YS11aWQ9ImVudDAwMDQiIGlkPSJlbnRpdHlfc2FsZXMiPjxyZWN0IGZpbGw9IiNGMUYxRjEiIGhlaWdodD0iMzcuOTg0NCIgcng9IjIuNSIgcnk9IjIuNSIgc3R5bGU9InN0cm9rZTojMTgxODE4O3N0cm9rZS13aWR0aDowLjU7IiB3aWR0aD0iMTE0IiB4PSI0MCIgeT0iMzEyIi8+PHBvbHlnb24gZmlsbD0iI0YxRjFGMSIgcG9pbnRzPSIxMzcsMzE3LDEzNywzMzEsMTQ5LDMzMSwxNDksMzIzLDE0MywzMTcsMTM3LDMxNyIgc3R5bGU9InN0cm9rZTojMTgxODE4O3N0cm9rZS13aWR0aDowLjU7Ii8+PGxpbmUgc3R5bGU9InN0cm9rZTojMTgxODE4O3N0cm9rZS13aWR0aDowLjU7IiB4MT0iMTQzIiB4Mj0iMTQzIiB5MT0iMzE3IiB5Mj0iMzIzIi8+PGxpbmUgc3R5bGU9InN0cm9rZTojMTgxODE4O3N0cm9rZS13aWR0aDowLjU7IiB4MT0iMTQ5IiB4Mj0iMTQzIiB5MT0iMzIzIiB5Mj0iMzIzIi8+PHRleHQgZmlsbD0iIzAwMDAwMCIgZm9udC1mYW1pbHk9InNhbnMtc2VyaWYiIGZvbnQtc2l6ZT0iMTQiIGxlbmd0aEFkanVzdD0ic3BhY2luZyIgdGV4dExlbmd0aD0iODQiIHg9IjUwIiB5PSIzMzguMjM0NCI+JiMzODE0NDsmIzIxODA2OyYjMjI4NzE7JiMzNjMzNTsmIzI3MTY5OyYjMjIzNTk7PC90ZXh0PjwvZz48IS0tZW50aXR5IGZpbmFuY2UtLT48ZyBjbGFzcz0iZW50aXR5IiBkYXRhLWVudGl0eT0iZmluYW5jZSIgZGF0YS1zb3VyY2UtbGluZT0iNCIgZGF0YS11aWQ9ImVudDAwMDUiIGlkPSJlbnRpdHlfZmluYW5jZSI+PHJlY3QgZmlsbD0iI0YxRjFGMSIgaGVpZ2h0PSIzNy45ODQ0IiByeD0iMi41IiByeT0iMi41IiBzdHlsZT0ic3Ryb2tlOiMxODE4MTg7c3Ryb2tlLXdpZHRoOjAuNTsiIHdpZHRoPSIxMTQiIHg9IjE4OSIgeT0iMzEyIi8+PHBvbHlnb24gZmlsbD0iI0YxRjFGMSIgcG9pbnRzPSIyODYsMzE3LDI4NiwzMzEsMjk4LDMzMSwyOTgsMzIzLDI5MiwzMTcsMjg2LDMxNyIgc3R5bGU9InN0cm9rZTojMTgxODE4O3N0cm9rZS13aWR0aDowLjU7Ii8+PGxpbmUgc3R5bGU9InN0cm9rZTojMTgxODE4O3N0cm9rZS13aWR0aDowLjU7IiB4MT0iMjkyIiB4Mj0iMjkyIiB5MT0iMzE3IiB5Mj0iMzIzIi8+PGxpbmUgc3R5bGU9InN0cm9rZTojMTgxODE4O3N0cm9rZS13aWR0aDowLjU7IiB4MT0iMjk4IiB4Mj0iMjkyIiB5MT0iMzIzIiB5Mj0iMzIzIi8+PHRleHQgZmlsbD0iIzAwMDAwMCIgZm9udC1mYW1pbHk9InNhbnMtc2VyaWYiIGZvbnQtc2l6ZT0iMTQiIGxlbmd0aEFkanVzdD0ic3BhY2luZyIgdGV4dExlbmd0aD0iODQiIHg9IjE5OSIgeT0iMzM4LjIzNDQiPiYjMzczMjk7JiMzNDcwMTsmIzM4NTE5OyYjMzg0NDk7JiMyNzE2OTsmIzIyMzU5OzwvdGV4dD48L2c+PCEtLWVudGl0eSBzZXJ2aWNlLS0+PGcgY2xhc3M9ImVudGl0eSIgZGF0YS1lbnRpdHk9InNlcnZpY2UiIGRhdGEtc291cmNlLWxpbmU9IjUiIGRhdGEtdWlkPSJlbnQwMDA2IiBpZD0iZW50aXR5X3NlcnZpY2UiPjxyZWN0IGZpbGw9IiNGMUYxRjEiIGhlaWdodD0iMzcuOTg0NCIgcng9IjIuNSIgcnk9IjIuNSIgc3R5bGU9InN0cm9rZTojMTgxODE4O3N0cm9rZS13aWR0aDowLjU7IiB3aWR0aD0iMTE0IiB4PSIzMzgiIHk9IjMxMiIvPjxwb2x5Z29uIGZpbGw9IiNGMUYxRjEiIHBvaW50cz0iNDM1LDMxNyw0MzUsMzMxLDQ0NywzMzEsNDQ3LDMyMyw0NDEsMzE3LDQzNSwzMTciIHN0eWxlPSJzdHJva2U6IzE4MTgxODtzdHJva2Utd2lkdGg6MC41OyIvPjxsaW5lIHN0eWxlPSJzdHJva2U6IzE4MTgxODtzdHJva2Utd2lkdGg6MC41OyIgeDE9IjQ0MSIgeDI9IjQ0MSIgeTE9IjMxNyIgeTI9IjMyMyIvPjxsaW5lIHN0eWxlPSJzdHJva2U6IzE4MTgxODtzdHJva2Utd2lkdGg6MC41OyIgeDE9IjQ0NyIgeDI9IjQ0MSIgeTE9IjMyMyIgeTI9IjMyMyIvPjx0ZXh0IGZpbGw9IiMwMDAwMDAiIGZvbnQtZmFtaWx5PSJzYW5zLXNlcmlmIiBmb250LXNpemU9IjE0IiBsZW5ndGhBZGp1c3Q9InNwYWNpbmciIHRleHRMZW5ndGg9Ijg0IiB4PSIzNDgiIHk9IjMzOC4yMzQ0Ij4mIzIxODA2OyYjMjE1MTg7JiMyNjI5MjsmIzIxMDMzOyYjMjcxNjk7JiMyMjM1OTs8L3RleHQ+PC9nPjwhLS1lbnRpdHkgcGxhdGZvcm0tLT48ZyBjbGFzcz0iZW50aXR5IiBkYXRhLWVudGl0eT0icGxhdGZvcm0iIGRhdGEtc291cmNlLWxpbmU9IjkiIGRhdGEtdWlkPSJlbnQwMDA4IiBpZD0iZW50aXR5X3BsYXRmb3JtIj48cmVjdCBmaWxsPSIjRjFGMUYxIiBoZWlnaHQ9IjQ0Ljk4NDQiIHJ4PSIyLjUiIHJ5PSIyLjUiIHN0eWxlPSJzdHJva2U6IzE4MTgxODtzdHJva2Utd2lkdGg6MC41OyIgd2lkdGg9IjEwMyIgeD0iNTIzLjUiIHk9IjE1MCIvPjxyZWN0IGZpbGw9IiNGMUYxRjEiIGhlaWdodD0iMTAiIHN0eWxlPSJzdHJva2U6IzE4MTgxODtzdHJva2Utd2lkdGg6MC41OyIgd2lkdGg9IjE1IiB4PSI2MDYuNSIgeT0iMTU1Ii8+PHJlY3QgZmlsbD0iI0YxRjFGMSIgaGVpZ2h0PSIyIiBzdHlsZT0ic3Ryb2tlOiMxODE4MTg7c3Ryb2tlLXdpZHRoOjAuNTsiIHdpZHRoPSI0IiB4PSI2MDQuNSIgeT0iMTU3Ii8+PHJlY3QgZmlsbD0iI0YxRjFGMSIgaGVpZ2h0PSIyIiBzdHlsZT0ic3Ryb2tlOiMxODE4MTg7c3Ryb2tlLXdpZHRoOjAuNTsiIHdpZHRoPSI0IiB4PSI2MDQuNSIgeT0iMTYxIi8+PHRleHQgZmlsbD0iIzAwMDAwMCIgZm9udC1mYW1pbHk9InNhbnMtc2VyaWYiIGZvbnQtc2l6ZT0iMTQiIGxlbmd0aEFkanVzdD0ic3BhY2luZyIgdGV4dExlbmd0aD0iNjMiIHg9IjUzOC41IiB5PSIxODMuMjM0NCI+MTIzMTUmIzI0MTc5OyYjMjE0ODg7PC90ZXh0PjwvZz48IS0tZW50aXR5IGFzc29jaWF0aW9uLS0+PGcgY2xhc3M9ImVudGl0eSIgZGF0YS1lbnRpdHk9ImFzc29jaWF0aW9uIiBkYXRhLXNvdXJjZS1saW5lPSIxMCIgZGF0YS11aWQ9ImVudDAwMDkiIGlkPSJlbnRpdHlfYXNzb2NpYXRpb24iPjxyZWN0IGZpbGw9IiNGMUYxRjEiIGhlaWdodD0iNDQuOTg0NCIgcng9IjIuNSIgcnk9IjIuNSIgc3R5bGU9InN0cm9rZTojMTgxODE4O3N0cm9rZS13aWR0aDowLjU7IiB3aWR0aD0iNjgiIHg9IjY2MiIgeT0iMTUwIi8+PHJlY3QgZmlsbD0iI0YxRjFGMSIgaGVpZ2h0PSIxMCIgc3R5bGU9InN0cm9rZTojMTgxODE4O3N0cm9rZS13aWR0aDowLjU7IiB3aWR0aD0iMTUiIHg9IjcxMCIgeT0iMTU1Ii8+PHJlY3QgZmlsbD0iI0YxRjFGMSIgaGVpZ2h0PSIyIiBzdHlsZT0ic3Ryb2tlOiMxODE4MTg7c3Ryb2tlLXdpZHRoOjAuNTsiIHdpZHRoPSI0IiB4PSI3MDgiIHk9IjE1NyIvPjxyZWN0IGZpbGw9IiNGMUYxRjEiIGhlaWdodD0iMiIgc3R5bGU9InN0cm9rZTojMTgxODE4O3N0cm9rZS13aWR0aDowLjU7IiB3aWR0aD0iNCIgeD0iNzA4IiB5PSIxNjEiLz48dGV4dCBmaWxsPSIjMDAwMDAwIiBmb250LWZhbWlseT0ic2Fucy1zZXJpZiIgZm9udC1zaXplPSIxNCIgbGVuZ3RoQWRqdXN0PSJzcGFjaW5nIiB0ZXh0TGVuZ3RoPSIyOCIgeD0iNjc3IiB5PSIxODMuMjM0NCI+JiMyODA0MDsmIzIxMzI3OzwvdGV4dD48L2c+PCEtLWVudGl0eSBob3RsaW5lLS0+PGcgY2xhc3M9ImVudGl0eSIgZGF0YS1lbnRpdHk9ImhvdGxpbmUiIGRhdGEtc291cmNlLWxpbmU9IjExIiBkYXRhLXVpZD0iZW50MDAxMCIgaWQ9ImVudGl0eV9ob3RsaW5lIj48cmVjdCBmaWxsPSIjRjFGMUYxIiBoZWlnaHQ9IjQ0Ljk4NDQiIHJ4PSIyLjUiIHJ5PSIyLjUiIHN0eWxlPSJzdHJva2U6IzE4MTgxODtzdHJva2Utd2lkdGg6MC41OyIgd2lkdGg9IjExNyIgeD0iNzY1LjUiIHk9IjE1MCIvPjxyZWN0IGZpbGw9IiNGMUYxRjEiIGhlaWdodD0iMTAiIHN0eWxlPSJzdHJva2U6IzE4MTgxODtzdHJva2Utd2lkdGg6MC41OyIgd2lkdGg9IjE1IiB4PSI4NjIuNSIgeT0iMTU1Ii8+PHJlY3QgZmlsbD0iI0YxRjFGMSIgaGVpZ2h0PSIyIiBzdHlsZT0ic3Ryb2tlOiMxODE4MTg7c3Ryb2tlLXdpZHRoOjAuNTsiIHdpZHRoPSI0IiB4PSI4NjAuNSIgeT0iMTU3Ii8+PHJlY3QgZmlsbD0iI0YxRjFGMSIgaGVpZ2h0PSIyIiBzdHlsZT0ic3Ryb2tlOiMxODE4MTg7c3Ryb2tlLXdpZHRoOjAuNTsiIHdpZHRoPSI0IiB4PSI4NjAuNSIgeT0iMTYxIi8+PHRleHQgZmlsbD0iIzAwMDAwMCIgZm9udC1mYW1pbHk9InNhbnMtc2VyaWYiIGZvbnQtc2l6ZT0iMTQiIGxlbmd0aEFkanVzdD0ic3BhY2luZyIgdGV4dExlbmd0aD0iNzciIHg9Ijc4MC41IiB5PSIxODMuMjM0NCI+JiMzNjcxMDsmIzIwMjI1OzQwMCYjMjg5MDk7JiMzMjQ0Nzs8L3RleHQ+PC9nPjwhLS1lbnRpdHkgdXNlci0tPjxnIGNsYXNzPSJlbnRpdHkiIGRhdGEtZW50aXR5PSJ1c2VyIiBkYXRhLXNvdXJjZS1saW5lPSIxIiBkYXRhLXVpZD0iZW50MDAwMiIgaWQ9ImVudGl0eV91c2VyIj48cG9seWdvbiBmaWxsPSIjRjFGMUYxIiBwb2ludHM9IjI3MiwxNiwyODIsNiwzNTQsNiwzNTQsNDAuOTg0NCwzNDQsNTAuOTg0NCwyNzIsNTAuOTg0NCwyNzIsMTYiIHN0eWxlPSJzdHJva2U6IzE4MTgxODtzdHJva2Utd2lkdGg6MC41OyIvPjxsaW5lIHN0eWxlPSJzdHJva2U6IzE4MTgxODtzdHJva2Utd2lkdGg6MC41OyIgeDE9IjM0NCIgeDI9IjM1NCIgeTE9IjE2IiB5Mj0iNiIvPjxsaW5lIHN0eWxlPSJzdHJva2U6IzE4MTgxODtzdHJva2Utd2lkdGg6MC41OyIgeDE9IjI3MiIgeDI9IjM0NCIgeTE9IjE2IiB5Mj0iMTYiLz48bGluZSBzdHlsZT0ic3Ryb2tlOiMxODE4MTg7c3Ryb2tlLXdpZHRoOjAuNTsiIHgxPSIzNDQiIHgyPSIzNDQiIHkxPSIxNiIgeTI9IjUwLjk4NDQiLz48dGV4dCBmaWxsPSIjMDAwMDAwIiBmb250LWZhbWlseT0ic2Fucy1zZXJpZiIgZm9udC1zaXplPSIxNCIgbGVuZ3RoQWRqdXN0PSJzcGFjaW5nIiB0ZXh0TGVuZ3RoPSI0MiIgeD0iMjg3IiB5PSIzOS4yMzQ0Ij4mIzI4MDQwOyYjMzYxNTM7JiMzMjc3Mzs8L3RleHQ+PC9nPjwhLS1saW5rIHVzZXIgdG8gc2FsZXMtLT48ZyBjbGFzcz0ibGluayIgZGF0YS1lbnRpdHktMT0idXNlciIgZGF0YS1lbnRpdHktMj0ic2FsZXMiIGRhdGEtc291cmNlLWxpbmU9IjE0IiBkYXRhLXVpZD0ibG5rMTEiIGlkPSJsaW5rX3VzZXJfc2FsZXMiPjxwYXRoIGQ9Ik0yNzEuNzUsMzcuOTIgQzIzNC45NCw0Ny41OSAxODIuMzIsNjcuMTIgMTUyLDEwNCBDMTAwLjQ2LDE2Ni43IDk1Ljg4NjYsMjY0LjI2MDMgOTYuMzI2NiwzMDUuODcwMyIgZmlsbD0ibm9uZSIgaWQ9InVzZXItdG8tc2FsZXMiIHN0eWxlPSJzdHJva2U6IzE4MTgxODtzdHJva2Utd2lkdGg6MTsiLz48cG9seWdvbiBmaWxsPSIjMTgxODE4IiBwb2ludHM9Ijk2LjM5LDMxMS44NywxMDAuMjk0NiwzMDIuODI4Miw5Ni4zMzcxLDMwNi44NzAzLDkyLjI5NTEsMzAyLjkxMjgsOTYuMzksMzExLjg3IiBzdHlsZT0ic3Ryb2tlOiMxODE4MTg7c3Ryb2tlLXdpZHRoOjE7Ii8+PHRleHQgZmlsbD0iIzAwMDAwMCIgZm9udC1mYW1pbHk9InNhbnMtc2VyaWYiIGZvbnQtc2l6ZT0iMTMiIGxlbmd0aEFkanVzdD0ic3BhY2luZyIgdGV4dExlbmd0aD0iNzgiIHg9IjE1MyIgeT0iMTc4LjI4OTEiPiYjMzY5NzM7JiMzNjkzNTsmIzI1NDE0OyYjMzI0NjU7JiMzODE0NDsmIzIxODA2OzwvdGV4dD48L2c+PCEtLWxpbmsgdXNlciB0byBmaW5hbmNlLS0+PGcgY2xhc3M9ImxpbmsiIGRhdGEtZW50aXR5LTE9InVzZXIiIGRhdGEtZW50aXR5LTI9ImZpbmFuY2UiIGRhdGEtc291cmNlLWxpbmU9IjE1IiBkYXRhLXVpZD0ibG5rMTIiIGlkPSJsaW5rX3VzZXJfZmluYW5jZSI+PHBhdGggZD0iTTI5Mi4yNSw1MS4wMiBDMjgwLjIxLDY0Ljk1IDI2Ni4wOCw4NC4xNCAyNTksMTA0IEMyMzIuODgsMTc3LjMgMjM4LjczOTQsMjY2LjQ0NTQgMjQzLjAyOTQsMzA1Ljc3NTQiIGZpbGw9Im5vbmUiIGlkPSJ1c2VyLXRvLWZpbmFuY2UiIHN0eWxlPSJzdHJva2U6IzE4MTgxODtzdHJva2Utd2lkdGg6MTsiLz48cG9seWdvbiBmaWxsPSIjMTgxODE4IiBwb2ludHM9IjI0My42OCwzMTEuNzQsMjQ2LjY4MDUsMzAyLjM1OTMsMjQzLjEzNzgsMzA2Ljc2OTUsMjM4LjcyNzcsMzAzLjIyNjgsMjQzLjY4LDMxMS43NCIgc3R5bGU9InN0cm9rZTojMTgxODE4O3N0cm9rZS13aWR0aDoxOyIvPjx0ZXh0IGZpbGw9IiMwMDAwMDAiIGZvbnQtZmFtaWx5PSJzYW5zLXNlcmlmIiBmb250LXNpemU9IjEzIiBsZW5ndGhBZGp1c3Q9InNwYWNpbmciIHRleHRMZW5ndGg9IjkxIiB4PSIyNjAiIHk9IjE3OC4yODkxIj4mIzI1OTAzOyYjMjAxODQ7JiMzOTY0MDsmIzM5MDY5OyYjMjUxNjM7JiMzMjQ5MzsmIzM2MTUzOzwvdGV4dD48L2c+PCEtLWxpbmsgdXNlciB0byBzZXJ2aWNlLS0+PGcgY2xhc3M9ImxpbmsiIGRhdGEtZW50aXR5LTE9InVzZXIiIGRhdGEtZW50aXR5LTI9InNlcnZpY2UiIGRhdGEtc291cmNlLWxpbmU9IjE2IiBkYXRhLXVpZD0ibG5rMTMiIGlkPSJsaW5rX3VzZXJfc2VydmljZSI+PHBhdGggZD0iTTMyOC4zNSw1MS4zMSBDMzM3LjczLDY1LjY1IDM0OS4xOSw4NS4xOCAzNTYsMTA0IEMzODIuODIsMTc4LjEzIDM5MS4wODkzLDI2Ni44MDI3IDM5My42MzkzLDMwNS44ODI3IiBmaWxsPSJub25lIiBpZD0idXNlci10by1zZXJ2aWNlIiBzdHlsZT0ic3Ryb2tlOiMxODE4MTg7c3Ryb2tlLXdpZHRoOjE7Ii8+PHBvbHlnb24gZmlsbD0iIzE4MTgxOCIgcG9pbnRzPSIzOTQuMDMsMzExLjg3LDM5Ny40MzU1LDMwMi42Mjg2LDM5My43MDQ0LDMwNi44ODA2LDM4OS40NTI1LDMwMy4xNDk1LDM5NC4wMywzMTEuODciIHN0eWxlPSJzdHJva2U6IzE4MTgxODtzdHJva2Utd2lkdGg6MTsiLz48dGV4dCBmaWxsPSIjMDAwMDAwIiBmb250LWZhbWlseT0ic2Fucy1zZXJpZiIgZm9udC1zaXplPSIxMyIgbGVuZ3RoQWRqdXN0PSJzcGFjaW5nIiB0ZXh0TGVuZ3RoPSI5MSIgeD0iMzg0IiB5PSIxNzguMjg5MSI+JiMzNDk4NzsmIzI1NTEyOyYjMzgxNDQ7JiMzNjgwNzsmIzI0MjMwOyYjMjA0NDU7JiMyMDg1OTs8L3RleHQ+PC9nPjwhLS1saW5rIHVzZXIgdG8gcGxhdGZvcm0tLT48ZyBjbGFzcz0ibGluayIgZGF0YS1lbnRpdHktMT0idXNlciIgZGF0YS1lbnRpdHktMj0icGxhdGZvcm0iIGRhdGEtc291cmNlLWxpbmU9IjE3IiBkYXRhLXVpZD0ibG5rMTQiIGlkPSJsaW5rX3VzZXJfcGxhdGZvcm0iPjxwYXRoIGQ9Ik0zNTQuMDMsNDEuOTggQzM5Mi4zNCw1NC42IDQ1MC4yOSw3Ni4xNyA0OTYsMTA0IEM1MTcuMjYsMTE2Ljk1IDUzNC4yMTY1LDEzMS40MTA2IDU0OS4zMjY1LDE0NS44MTA2IiBmaWxsPSJub25lIiBpZD0idXNlci10by1wbGF0Zm9ybSIgc3R5bGU9InN0cm9rZTojMTgxODE4O3N0cm9rZS13aWR0aDoxOyIvPjxwb2x5Z29uIGZpbGw9IiMxODE4MTgiIHBvaW50cz0iNTUzLjY3LDE0OS45NSw1NDkuOTE0NCwxNDAuODQ1Myw1NTAuMDUwNCwxNDYuNTAwNSw1NDQuMzk1MiwxNDYuNjM2Niw1NTMuNjcsMTQ5Ljk1IiBzdHlsZT0ic3Ryb2tlOiMxODE4MTg7c3Ryb2tlLXdpZHRoOjE7Ii8+PHRleHQgZmlsbD0iIzAwMDAwMCIgZm9udC1mYW1pbHk9InNhbnMtc2VyaWYiIGZvbnQtc2l6ZT0iMTMiIGxlbmd0aEFkanVzdD0ic3BhY2luZyIgdGV4dExlbmd0aD0iMTc1LjUiIHg9IjQ4MyIgeT0iOTQuMjg5MSI+JiMxOTk3ODsmIzIwMjU2OyYjMjQ0MDU7JiMzODg5OTsvJiMyMTUxMjsmIzIxNTE2OyYjMjAwMzA7JiMzNTc3NzsgWzFdKEByZWYpPC90ZXh0PjwvZz48IS0tbGluayBwbGF0Zm9ybSB0byBkZWFsZXItLT48ZyBjbGFzcz0ibGluayIgZGF0YS1lbnRpdHktMT0icGxhdGZvcm0iIGRhdGEtZW50aXR5LTI9ImRlYWxlciIgZGF0YS1zb3VyY2UtbGluZT0iMTgiIGRhdGEtdWlkPSJsbmsxNSIgaWQ9ImxpbmtfcGxhdGZvcm1fZGVhbGVyIj48cGF0aCBkPSJNNTYyLjc2LDE5NS4yNiBDNTUwLjg2LDIxNi40MjUgNTMyLjMyMjUsMjQ5LjM5NzUgNTE2LjU2MzgsMjc3LjQyNjMgQzUwOC42ODQ0LDI5MS40NDA2IDUwMS40OTk3LDMwNC4yMTkxIDQ5Ni4xODY3LDMxMy42Njc3IEM0OTUuODU0NywzMTQuMjU4MiA0OTguNDcwNywzMDkuNjA1OCA0OTguMTUzNiwzMTAuMTY5OSIgZmlsbD0ibm9uZSIgaWQ9InBsYXRmb3JtLXRvLWRlYWxlciIgc3R5bGU9InN0cm9rZTojMTgxODE4O3N0cm9rZS13aWR0aDoxOyIvPjxwb2x5Z29uIGZpbGw9IiMxODE4MTgiIHBvaW50cz0iNDk1LjIxMjgsMzE1LjM5OTcsNTAzLjExMDYsMzA5LjUxNTUsNDk3LjY2MzQsMzExLjA0MTUsNDk2LjEzNzQsMzA1LjU5NDQsNDk1LjIxMjgsMzE1LjM5OTciIHN0eWxlPSJzdHJva2U6IzE4MTgxODtzdHJva2Utd2lkdGg6MTsiLz48dGV4dCBmaWxsPSIjMDAwMDAwIiBmb250LWZhbWlseT0ic2Fucy1zZXJpZiIgZm9udC1zaXplPSIxMyIgbGVuZ3RoQWRqdXN0PSJzcGFjaW5nIiB0ZXh0TGVuZ3RoPSI1MiIgeD0iNTQ1IiB5PSIyNDAuMjg5MSI+JiMyNDM3ODsmIzIxMDQ2OyYjMjU5NzI7JiMyNTkxMzs8L3RleHQ+PC9nPjwhLS1saW5rIGhvdGxpbmUgdG8gZGVhbGVyLS0+PGcgY2xhc3M9ImxpbmsiIGRhdGEtZW50aXR5LTE9ImhvdGxpbmUiIGRhdGEtZW50aXR5LTI9ImRlYWxlciIgZGF0YS1zb3VyY2UtbGluZT0iMTkiIGRhdGEtdWlkPSJsbmsxNiIgaWQ9ImxpbmtfaG90bGluZV9kZWFsZXIiPjxwYXRoIGQ9Ik03OTAuMTQsMTk1LjEzIEM3NzcuMTgsMjAzLjA1IDc2Mi4xMiwyMTEuODIgNzQ4LDIxOSBDNjkyLjcwNSwyNDcuMTQgNjI4LjYxNSwyNzQuNDcgNTc3Ljc4MjUsMjk0Ljk3IEM1NTIuMzY2MywzMDUuMjIgNTMwLjI2NDQsMzEzLjc2MjUgNTE0LjIzMzQsMzE5Ljg0NSBDNTA2LjIxOCwzMjIuODg2MiA1MDUuMzQ2NiwzMjMuMjI4MiA1MDAuNzExMiwzMjQuOTQ1NCIgZmlsbD0ibm9uZSIgaWQ9ImhvdGxpbmUtdG8tZGVhbGVyIiBzdHlsZT0ic3Ryb2tlOiMxODE4MTg7c3Ryb2tlLXdpZHRoOjE7Ii8+PHBvbHlnb24gZmlsbD0iIzE4MTgxOCIgcG9pbnRzPSI0OTUuMDg0OCwzMjcuMDI5Nyw1MDQuOTEzOCwzMjcuNjU0Miw0OTkuNzczNCwzMjUuMjkyOCw1MDIuMTM0OCwzMjAuMTUyNCw0OTUuMDg0OCwzMjcuMDI5NyIgc3R5bGU9InN0cm9rZTojMTgxODE4O3N0cm9rZS13aWR0aDoxOyIvPjx0ZXh0IGZpbGw9IiMwMDAwMDAiIGZvbnQtZmFtaWx5PSJzYW5zLXNlcmlmIiBmb250LXNpemU9IjEzIiBsZW5ndGhBZGp1c3Q9InNwYWNpbmciIHRleHRMZW5ndGg9IjE0MyIgeD0iNzI4IiB5PSIyNDAuMjg5MSI+JiMyNTE4NzsmIzIwOTQzOyYjMjEzNzg7JiMyMTgzMDsmIzM2ODIwOyYjMjg4NTc7IFszXShAcmVmKTwvdGV4dD48L2c+PCEtLVNSQz1bTFA3QkppOTA1OFJ0Vk9lOUFycU9LTjdabWxXRUJXY0IxZWlzbVRRcWJPcW40R2FOQnpvSThnWDExOUxXM0EyMUE1MktiLWNQb3JpdUJMTFdFX3l0X3ZwbFpBQmtJU1k3RnBFcUZ3SGRJSHlJVE5JaUl2Z1drNDVXNXFQYnFoRThMTkVaRktjQ0lYZXc0SDBJREtFRVk2NDMtUFh2MWNPN05paHFndWpSVFFZTU5MUmRnQnU4ZmVscThTamtsclpiT213Q284Z2VYQUs1cjJhaXZGMVQ3cEFseXZzSTVmQ3ZVWWZ1MHlCcDNLa3FvN3NIVEVla2lRXzZ0RjYyUS1pUlF2aW14NDctRlVHNEhyN0hZQVpRZVBEbk55WmN0TURIcnpNbUIxZ29nWlc5X014UXV0WjB4b1U5RFhiRE5FSDBEUUFvdVp4Z2gwUWpoNm5GdlQwTU9sNHNZd1RuRGFNaXVkR0ZDeVJwdVhHc2t4UExPTXlMcmdaWVlvallqVmN3dnlnY0xYb2FaSlVTUV80WUVhZDNnNmJGZ2YycVBrMlYwb1ZqbVFLelZlSmw0Z2xyTGc2R1dTQXJGVllYdEpXdDNvdGpRNTlhTVZaN2RSbFVyc3FYNjh5V3l1YkJWTW1FMVN6amFTME5KdjNFRy11U0lZYXdDU2R2NDBLdGxEOVZdLS0+PC9nPjwvc3ZnPg==;" vertex="1" parent="1">
            <mxGeometry x="440" y="620" width="1663.32" height="710" as="geometry" />
          </mxCell>
        </UserObject>
      </root>
    </mxGraphModel>
  </diagram>
</mxfile>
